<svg xmlns="http://www.w3.org/2000/svg" width="85.521" height="85.083" viewBox="0 0 85.521 85.083">
  <g id="그룹_633" data-name="그룹 633" transform="translate(-12048.071 8740.156)">
    <g id="그룹_369" data-name="그룹 369" transform="translate(12064.169 -8719.341)">
      <ellipse id="타원_71" data-name="타원 71" cx="14.724" cy="2.699" rx="14.724" ry="2.699" transform="translate(11.94 38.054)" fill="#a987b4"/>
      <path id="패스_205" data-name="패스 205" d="M194.053,477.173a2.609,2.609,0,0,0-1.44,4.78l-.176.167s-17.776,38.232-21.726-5.307l-.042-.111a2.605,2.605,0,1,0-1.128.079c-.1,1.729-2.574,42.062-22.083,5.7l-.258-.423a2.6,2.6,0,1,0-1.267.332,2.541,2.541,0,0,0,.36-.028v.207l8.528,27.98s13.288-6.209,30.523,0l8.321-28.19a2.917,2.917,0,0,0,.388.031,2.608,2.608,0,0,0,0-5.217Z" transform="translate(-143.33 -471.593)" fill="#a987b4"/>
      <path id="패스_206" data-name="패스 206" d="M150.911,478.061a2.153,2.153,0,1,0-1,.227l-.411,11.967s3.861,3.6,5.747-.448Z" transform="translate(-135.136 -467.225)" fill="#a987b4"/>
      <path id="패스_207" data-name="패스 207" d="M162.492,476.133a2.155,2.155,0,1,0-3.039,1.968l-4.5,12.2c1.885,4.049,5.747.451,5.747.451l-.428-12.46.068,0A2.156,2.156,0,0,0,162.492,476.133Z" transform="translate(-122.004 -467.225)" fill="#a987b4"/>
    </g>
    <g id="그룹_399" data-name="그룹 399" transform="translate(12048.071 -8740.156)">
      <g id="그룹_367" data-name="그룹 367" transform="translate(2.414 0)">
        <path id="패스_178" data-name="패스 178" d="M120.127,486.183l-.116.42-2.516-.7-.816,2.947,2.516.7-.117.42-5.16-1.434.116-.421,2.27.632.815-2.948-2.268-.631.116-.419Z" transform="translate(-113.918 -456.158)" fill="#a987b4"/>
        <path id="패스_179" data-name="패스 179" d="M121.972,481.691,120,481.6l-.893,2.036,1.4,1.405-.182.413-4.071-4.1.16-.365,5.749.288Zm-4.444-.253c-.076,0-.194-.009-.352-.023l-.414-.044c.107.091.211.183.311.278s.189.172.263.238l1.458,1.456.784-1.781Z" transform="translate(-113.814 -456.327)" fill="#a987b4"/>
        <path id="패스_180" data-name="패스 180" d="M124.642,477.367l-.247.395-5.615.153-.013.019q.255.143.538.306t.582.351l2.868,1.8-.218.351L118,477.893l.247-.4,5.6-.154.01-.019c-.136-.073-.307-.172-.514-.295s-.4-.241-.577-.352l-2.88-1.806.219-.351Z" transform="translate(-113.735 -456.616)" fill="#a987b4"/>
        <path id="패스_181" data-name="패스 181" d="M126.114,471.286a2.708,2.708,0,0,1,1.075,1.877,2.88,2.88,0,0,1-.833,2.025l-.868,1.007-4.053-3.507.975-1.132a2.359,2.359,0,0,1,3.7-.271Zm-.288.355a1.992,1.992,0,0,0-3.183.235l-.633.732,3.474,3.006.56-.649A2.085,2.085,0,0,0,125.826,471.641Z" transform="translate(-113.581 -456.795)" fill="#a987b4"/>
        <path id="패스_182" data-name="패스 182" d="M132.454,469.509l-4.433-2.838-.018.014c.086.11.184.235.295.374s.224.289.339.448l2.27,3.129-.332.243-3.15-4.341.535-.389,4.248,2.712.019-.014-1.246-4.9.522-.379,3.149,4.34-.353.257L132,465c-.1-.134-.194-.273-.29-.417l-.263-.4-.019.014,1.311,5.1Z" transform="translate(-113.313 -457.106)" fill="#a987b4"/>
        <path id="패스_183" data-name="패스 183" d="M138.776,465.673l-1.472-1.325-1.978,1.009.2,1.976-.4.2-.561-5.76.353-.182,4.271,3.869Zm-3.283-3.015c-.057-.049-.144-.13-.256-.24s-.21-.211-.295-.3c.026.139.048.277.068.414s.037.253.052.351l.21,2.053,1.73-.883Z" transform="translate(-112.994 -457.194)" fill="#a987b4"/>
        <path id="패스_184" data-name="패스 184" d="M142.939,461.289a2.707,2.707,0,0,1-.022,2.166,2.865,2.865,0,0,1-1.741,1.324l-1.257.427-1.724-5.08,1.414-.483a2.361,2.361,0,0,1,3.33,1.645Zm-.427.162a2,2,0,0,0-2.865-1.416l-.916.312,1.477,4.356.81-.276A2.084,2.084,0,0,0,142.512,461.451Z" transform="translate(-112.831 -457.291)" fill="#a987b4"/>
        <path id="패스_185" data-name="패스 185" d="M147.822,463.093l-2.888.558-1.014-5.27,2.887-.558.075.383-2.459.475.369,1.926,2.32-.447.074.383-2.319.447.421,2.193,2.459-.476Z" transform="translate(-112.575 -457.363)" fill="#a987b4"/>
        <path id="패스_186" data-name="패스 186" d="M150.48,464.193a1.894,1.894,0,0,1-.337-.013,1.019,1.019,0,0,1-.242-.063l-.016-.39a1.354,1.354,0,0,0,.262.057,2.019,2.019,0,0,0,.311.01q.832-.033.793-1.04l-.2-5.325.436-.016.2,5.309a1.583,1.583,0,0,1-.274,1.057A1.17,1.17,0,0,1,150.48,464.193Z" transform="translate(-112.308 -457.382)" fill="#a987b4"/>
        <path id="패스_187" data-name="패스 187" d="M156.179,462.89l-2.936-.147.27-5.36,2.936.148-.019.39-2.5-.127-.1,1.96,2.361.12-.02.39-2.36-.119-.112,2.229,2.5.126Z" transform="translate(-112.158 -457.383)" fill="#a987b4"/>
        <path id="패스_188" data-name="패스 188" d="M164.181,458.922l-2.521,4.956-.417-.089-.3-4.093c-.018-.188-.03-.359-.039-.517s-.01-.288-.009-.39c-.034.089-.083.2-.143.334s-.129.271-.2.414l-1.914,3.706-.419-.087-.313-5.549.44.093.2,3.8c.006.217.011.415.019.591s.007.351,0,.519c.065-.161.135-.325.21-.494s.164-.346.265-.535l1.76-3.37.434.091.288,3.824c.016.223.025.425.031.608s.006.356,0,.518c.059-.155.123-.315.2-.475s.16-.346.264-.548l1.721-3.4Z" transform="translate(-111.949 -457.373)" fill="#a987b4"/>
        <path id="패스_189" data-name="패스 189" d="M166.581,465.587l-2.749-1.045,1.9-5.017,2.75,1.044-.14.368-2.34-.892-.7,1.835,2.21.84-.138.366-2.21-.84-.791,2.086,2.342.891Z" transform="translate(-111.684 -457.287)" fill="#a987b4"/>
        <path id="패스_190" data-name="패스 190" d="M167.708,466.117l2.473-4.76.387.2-2.292,4.406,2.231,1.164-.185.353Z" transform="translate(-111.51 -457.205)" fill="#a987b4"/>
        <path id="패스_191" data-name="패스 191" d="M175.259,464.314a2.542,2.542,0,0,1,1,1.093,1.287,1.287,0,0,1-.244,1.214,1.358,1.358,0,0,1-.814.611,1.761,1.761,0,0,1-.95-.056l-.164,2.842-.425-.294.182-2.683-1.051-.722-1.308,1.907-.358-.247,3.031-4.424Zm-.248.295-.71-.49-1.3,1.889.835.575a1.509,1.509,0,0,0,1,.322,1.091,1.091,0,0,0,.792-.527.944.944,0,0,0,.178-.921A2.112,2.112,0,0,0,175.011,464.609Z" transform="translate(-111.357 -457.107)" fill="#a987b4"/>
        <path id="패스_192" data-name="패스 192" d="M177.347,469.612l3.047-1.133.359.319-3.516,1.279-1.373,1.553-.325-.289,1.353-1.53.85-3.683.359.319Z" transform="translate(-111.16 -456.992)" fill="#a987b4"/>
        <path id="패스_193" data-name="패스 193" d="M182.147,476.434a1.331,1.331,0,0,1-.786.312,1.453,1.453,0,0,1-.8-.213,2.623,2.623,0,0,1-.718-.649,4.689,4.689,0,0,1-.471-.709,3.228,3.228,0,0,1-.244-.591l.337-.264a4,4,0,0,0,.255.64,3.791,3.791,0,0,0,.445.7,1.733,1.733,0,0,0,.824.627,1,1,0,0,0,1.177-.622,1.21,1.21,0,0,0,.005-.577,5.8,5.8,0,0,0-.236-.8,4.185,4.185,0,0,1-.211-.818,1.384,1.384,0,0,1,.063-.68,1.333,1.333,0,0,1,.45-.576,1.218,1.218,0,0,1,.718-.281,1.378,1.378,0,0,1,.739.191,2.338,2.338,0,0,1,.669.6,3.593,3.593,0,0,1,.4.631,3.46,3.46,0,0,1,.249.655l-.383.12a3.313,3.313,0,0,0-.58-1.177,1.535,1.535,0,0,0-.75-.56.812.812,0,0,0-.779.168.909.909,0,0,0-.34.46,1.166,1.166,0,0,0-.005.559,5.943,5.943,0,0,0,.206.725,5.9,5.9,0,0,1,.231.855,1.409,1.409,0,0,1-.03.7A1.2,1.2,0,0,1,182.147,476.434Z" transform="translate(-110.999 -456.732)" fill="#a987b4"/>
        <path id="패스_194" data-name="패스 194" d="M183.677,481.616l-.219-.377,2.253-1.32-1.541-2.64-2.254,1.32-.219-.376,4.622-2.71.219.376-2.031,1.192,1.539,2.64,2.033-1.191.221.375Z" transform="translate(-110.884 -456.572)" fill="#a987b4"/>
        <path id="패스_195" data-name="패스 195" d="M188.425,486.14a3.6,3.6,0,0,1-1.441.267,2.132,2.132,0,0,1-1.2-.4,2.387,2.387,0,0,1-.806-1.117,2.434,2.434,0,0,1-.16-1.383,2.114,2.114,0,0,1,.62-1.1,3.65,3.65,0,0,1,1.25-.771,3.5,3.5,0,0,1,1.434-.261,2.157,2.157,0,0,1,1.194.416,2.754,2.754,0,0,1,.971,2.472,2.1,2.1,0,0,1-.594,1.1A3.611,3.611,0,0,1,188.425,486.14Zm-1.568-4.083a3.416,3.416,0,0,0-1.09.648,1.751,1.751,0,0,0-.542.9,2.231,2.231,0,0,0,.793,2.066,1.71,1.71,0,0,0,1,.3,3.461,3.461,0,0,0,1.24-.26,2.77,2.77,0,0,0,1.448-1.08,1.725,1.725,0,0,0,.059-1.576,1.94,1.94,0,0,0-.677-.929,1.732,1.732,0,0,0-1.005-.316A3.268,3.268,0,0,0,186.857,482.057Z" transform="translate(-110.746 -456.31)" fill="#a987b4"/>
        <path id="패스_196" data-name="패스 196" d="M191.718,488.345q.425,1.885-1.052,2.219a1.524,1.524,0,0,1-1.291-.22,2.29,2.29,0,0,1-.769-1.408l-.173-.77-2.137.485-.1-.424,5.224-1.186Zm-.382.04-.19-.834-2.339.53.163.726a2.272,2.272,0,0,0,.53,1.117,1.053,1.053,0,0,0,1.045.2,1.023,1.023,0,0,0,.775-.556A1.942,1.942,0,0,0,191.336,488.385Z" transform="translate(-110.683 -456.056)" fill="#a987b4"/>
      </g>
      <g id="그룹_397" data-name="그룹 397" transform="translate(0 39.245)">
        <ellipse id="타원_69" data-name="타원 69" cx="3.29" cy="3.297" rx="3.29" ry="3.297" transform="translate(78.942)" fill="#a987b4"/>
        <ellipse id="타원_70" data-name="타원 70" cx="3.29" cy="3.297" rx="3.29" ry="3.297" fill="#a987b4"/>
      </g>
      <g id="그룹_398" data-name="그룹 398" transform="translate(2.414 50.522)">
        <path id="패스_178-2" data-name="패스 178" d="M113.918,488.534l.116-.42,2.516.7.816-2.947-2.516-.7.117-.42,5.16,1.435-.116.421-2.27-.632-.815,2.948,2.268.631-.116.419Z" transform="translate(-38.996 -483.999)" fill="#a987b4"/>
        <path id="패스_179-2" data-name="패스 179" d="M116.431,484.746l1.977.092.893-2.036-1.4-1.405.182-.413,4.071,4.1-.16.365-5.749-.288Zm4.444.253c.076,0,.194.009.352.023l.414.044c-.107-.091-.211-.183-.311-.278s-.189-.172-.263-.238l-1.458-1.456-.784,1.781Z" transform="translate(-43.458 -475.55)" fill="#a987b4"/>
        <path id="패스_180-2" data-name="패스 180" d="M118,477.892l.247-.395,5.615-.153.013-.019q-.255-.143-.538-.306t-.582-.351l-2.868-1.8.218-.351,4.541,2.845-.247.4-5.6.154-.01.019c.136.073.307.172.514.295s.4.241.577.352l2.88,1.806-.219.351Z" transform="translate(-47.772 -464.083)" fill="#a987b4"/>
        <path id="패스_181-2" data-name="패스 181" d="M122.514,475.423a2.708,2.708,0,0,1-1.075-1.877,2.88,2.88,0,0,1,.833-2.025l.868-1.007,4.053,3.507-.975,1.132a2.359,2.359,0,0,1-3.7.271Zm.288-.355a1.992,1.992,0,0,0,3.183-.235l.633-.732-3.474-3.006-.56.649A2.085,2.085,0,0,0,122.8,475.068Z" transform="translate(-53.916 -455.354)" fill="#a987b4"/>
        <path id="패스_182-2" data-name="패스 182" d="M129.622,464.941l4.433,2.838.018-.014c-.086-.11-.184-.235-.295-.374s-.224-.289-.339-.448l-2.27-3.129.332-.243,3.15,4.341-.535.389-4.248-2.712-.019.014,1.246,4.9-.522.379-3.149-4.34.353-.257,2.3,3.168c.1.134.194.273.29.417l.263.4.019-.014-1.311-5.1Z" transform="translate(-67.632 -442.784)" fill="#a987b4"/>
        <path id="패스_183-2" data-name="패스 183" d="M134.966,463.459l1.472,1.325,1.978-1.009-.2-1.976.4-.2.561,5.76-.353.182-4.271-3.869Zm3.283,3.015c.057.049.144.13.256.24s.21.211.295.3c-.026-.139-.048-.277-.068-.414s-.037-.253-.052-.351l-.21-2.053-1.73.883Z" transform="translate(-79.617 -437.376)" fill="#a987b4"/>
        <path id="패스_184-2" data-name="패스 184" d="M138.408,463.359a2.707,2.707,0,0,1,.022-2.166,2.865,2.865,0,0,1,1.741-1.324l1.257-.427,1.724,5.08-1.414.483a2.361,2.361,0,0,1-3.33-1.645Zm.427-.162a2,2,0,0,0,2.865,1.416l.916-.312-1.477-4.356-.81.276A2.084,2.084,0,0,0,138.836,463.2Z" transform="translate(-87.385 -432.797)" fill="#a987b4"/>
        <path id="패스_185-2" data-name="패스 185" d="M143.92,458.381l2.888-.558,1.014,5.27-2.887.558-.075-.383,2.459-.475-.369-1.926-2.32.447-.074-.383,2.319-.447-.421-2.193-2.459.476Z" transform="translate(-98.036 -429.55)" fill="#a987b4"/>
        <path id="패스_186-2" data-name="패스 186" d="M151.093,457.418a1.892,1.892,0,0,1,.337.013,1.019,1.019,0,0,1,.242.063l.016.39a1.354,1.354,0,0,0-.262-.057,2.019,2.019,0,0,0-.311-.01q-.832.033-.793,1.04l.2,5.325-.436.016-.2-5.31a1.583,1.583,0,0,1,.274-1.057A1.17,1.17,0,0,1,151.093,457.418Z" transform="translate(-108.134 -429.669)" fill="#a987b4"/>
        <path id="패스_187-2" data-name="패스 187" d="M153.513,457.383l2.936.147-.27,5.36-2.936-.148.019-.39,2.5.127.1-1.96-2.361-.12.02-.39,2.36.119.112-2.23-2.5-.126Z" transform="translate(-116.403 -428.329)" fill="#a987b4"/>
        <path id="패스_188-2" data-name="패스 188" d="M157.9,462.564l2.521-4.956.417.089.3,4.093c.018.188.03.359.039.517s.01.288.009.39c.034-.089.083-.2.143-.334s.129-.271.2-.414l1.914-3.706.419.087.313,5.549-.44-.093-.2-3.8c-.006-.217-.011-.415-.019-.591s-.007-.351,0-.519c-.065.161-.135.325-.21.494s-.164.346-.265.535l-1.76,3.37-.434-.091-.288-3.824c-.016-.223-.025-.425-.031-.608s-.006-.356,0-.518c-.059.155-.123.316-.2.475s-.16.346-.264.549l-1.721,3.4Z" transform="translate(-129.006 -429.553)" fill="#a987b4"/>
        <path id="패스_189-2" data-name="패스 189" d="M165.732,459.525l2.749,1.045-1.9,5.017-2.75-1.044.14-.368,2.34.892.7-1.835-2.21-.84.138-.366,2.21.84.791-2.086-2.342-.891Z" transform="translate(-139.499 -433.264)" fill="#a987b4"/>
        <path id="패스_190-2" data-name="패스 190" d="M170.567,462.722l-2.473,4.76-.387-.2L170,462.874l-2.231-1.164.185-.353Z" transform="translate(-145.634 -437.074)" fill="#a987b4"/>
        <path id="패스_191-2" data-name="패스 191" d="M172.194,469.259a2.542,2.542,0,0,1-1-1.093,1.287,1.287,0,0,1,.244-1.214,1.358,1.358,0,0,1,.814-.611,1.761,1.761,0,0,1,.95.056l.164-2.842.425.294-.182,2.683,1.051.722,1.308-1.907.358.247-3.031,4.424Zm.248-.295.71.49,1.3-1.889-.835-.575a1.509,1.509,0,0,0-1-.322,1.091,1.091,0,0,0-.792.527.944.944,0,0,0-.178.921A2.112,2.112,0,0,0,172.442,468.965Z" transform="translate(-154.965 -441.907)" fill="#a987b4"/>
        <path id="패스_192-2" data-name="패스 192" d="M178.946,468.145l-3.047,1.133-.359-.319,3.516-1.279,1.373-1.553.325.289-1.353,1.53-.85,3.683-.359-.319Z" transform="translate(-164.003 -446.206)" fill="#a987b4"/>
        <path id="패스_193-2" data-name="패스 193" d="M182,472.242a1.331,1.331,0,0,1,.786-.312,1.453,1.453,0,0,1,.8.213,2.622,2.622,0,0,1,.718.649,4.689,4.689,0,0,1,.471.709,3.227,3.227,0,0,1,.244.591l-.337.264a4,4,0,0,0-.255-.64,3.79,3.79,0,0,0-.445-.7,1.734,1.734,0,0,0-.824-.627,1,1,0,0,0-1.177.622,1.21,1.21,0,0,0-.005.577,5.794,5.794,0,0,0,.236.8,4.186,4.186,0,0,1,.211.818,1.384,1.384,0,0,1-.063.68,1.333,1.333,0,0,1-.45.576,1.218,1.218,0,0,1-.718.281,1.378,1.378,0,0,1-.739-.191,2.337,2.337,0,0,1-.669-.6,3.594,3.594,0,0,1-.4-.631,3.46,3.46,0,0,1-.249-.655l.383-.12a3.313,3.313,0,0,0,.58,1.177,1.535,1.535,0,0,0,.75.56.812.812,0,0,0,.779-.168.909.909,0,0,0,.34-.46,1.167,1.167,0,0,0,.005-.559,5.94,5.94,0,0,0-.206-.725,5.9,5.9,0,0,1-.231-.855,1.409,1.409,0,0,1,.03-.7A1.2,1.2,0,0,1,182,472.242Z" transform="translate(-172.014 -457.384)" fill="#a987b4"/>
        <path id="패스_194-2" data-name="패스 194" d="M186.319,475.513l.219.377-2.252,1.32,1.541,2.64,2.254-1.32.219.376-4.622,2.71-.219-.376,2.031-1.192-1.539-2.64-2.033,1.191-.221-.375Z" transform="translate(-177.981 -465.998)" fill="#a987b4"/>
        <path id="패스_195-2" data-name="패스 195" d="M186.683,481.634a3.6,3.6,0,0,1,1.441-.267,2.132,2.132,0,0,1,1.2.4,2.387,2.387,0,0,1,.806,1.117,2.434,2.434,0,0,1,.16,1.383,2.113,2.113,0,0,1-.62,1.1,3.65,3.65,0,0,1-1.25.771,3.5,3.5,0,0,1-1.434.261,2.157,2.157,0,0,1-1.194-.416,2.754,2.754,0,0,1-.971-2.472,2.1,2.1,0,0,1,.594-1.1A3.611,3.611,0,0,1,186.683,481.634Zm1.568,4.083a3.417,3.417,0,0,0,1.09-.648,1.752,1.752,0,0,0,.542-.9,2.231,2.231,0,0,0-.793-2.066,1.71,1.71,0,0,0-1-.3,3.461,3.461,0,0,0-1.24.26,2.77,2.77,0,0,0-1.448,1.08,1.725,1.725,0,0,0-.059,1.576,1.94,1.94,0,0,0,.677.929,1.732,1.732,0,0,0,1.005.316A3.268,3.268,0,0,0,188.252,485.716Z" transform="translate(-183.232 -476.903)" fill="#a987b4"/>
        <path id="패스_196-2" data-name="패스 196" d="M186.3,489.311q-.425-1.885,1.052-2.219a1.524,1.524,0,0,1,1.291.22,2.29,2.29,0,0,1,.769,1.408l.173.77,2.137-.485.1.424-5.224,1.186Zm.382-.04.19.834,2.339-.53-.163-.726a2.272,2.272,0,0,0-.53-1.117,1.053,1.053,0,0,0-1.045-.2,1.023,1.023,0,0,0-.775.556A1.942,1.942,0,0,0,186.678,489.271Z" transform="translate(-186.201 -487.04)" fill="#a987b4"/>
      </g>
    </g>
  </g>
</svg>
