<svg xmlns="http://www.w3.org/2000/svg" width="1124" height="181.086" viewBox="0 0 1124 181.086">
  <g id="그룹_979" data-name="그룹 979" transform="translate(-348 7907.343)">
    <g id="그룹_974" data-name="그룹 974" transform="matrix(0.978, -0.208, 0.208, 0.978, -6114.637, 1651.377)">
      <path id="패스_274" data-name="패스 274" d="M73.788-2.138,54.46,43.959l49.006-18.252L55.882,47.382l46.332,18.955L54.247,50.895,70.764,95.953,50.513,52.438,27.541,97.2l19.327-46.1L-2.138,69.36,45.447,47.685-.885,28.73,47.082,44.172,30.564-.885,50.815,42.629Z" transform="translate(8586.729 -7944.569) rotate(22)" fill="#ffd391"/>
      <path id="패스_275" data-name="패스 275" d="M48-2.831l-13.519,32.1L66.71,15.8,35.333,31.6,65.051,43.8,34.2,34.048,44,64.771,31.739,35.179,15.878,66.43,29.4,34.331-2.831,47.8,28.545,32-1.173,19.8l30.853,9.75-9.8-30.724L32.139,28.419Z" transform="matrix(0.719, 0.695, -0.695, 0.719, 8615.013, -7926.579)" fill="#ffd391"/>
    </g>
    <g id="그룹_975" data-name="그룹 975" transform="translate(-8103.131 134.743)">
      <text id="TAKING_SHAPE_NEW_jewelry_COLLECTION_LAUNCH" data-name="TAKING SHAPE
NEW jewelry COLLECTION LAUNCH" transform="translate(9013.131 -7944)" fill="#333" font-size="60" font-family="Selino"><tspan x="-227.25" y="0">TAKING SHAPE</tspan><tspan x="-561.78" y="68">NEW JEWELRY COLLECTION LAUNCH</tspan></text>
    </g>
  </g>
</svg>
