<svg xmlns="http://www.w3.org/2000/svg" width="116.001" height="115.406" viewBox="0 0 116.001 115.406">
  <g id="그룹_399" data-name="그룹 399" transform="translate(0 0)">
    <g id="그룹_367" data-name="그룹 367" transform="translate(3.274 0)">
      <path id="패스_178" data-name="패스 178" d="M122.34,486.7l-.157.57-3.412-.949-1.107,4,3.412.948-.159.57-7-1.946.157-.571,3.079.857,1.105-4-3.077-.856.157-.568Z" transform="translate(-113.918 -445.969)" fill="#444"/>
      <path id="패스_179" data-name="패스 179" d="M124.013,481.943l-2.681-.125-1.212,2.762,1.9,1.906-.247.56-5.522-5.568.217-.495,7.8.391Zm-6.028-.343c-.1,0-.264-.013-.478-.031s-.4-.041-.561-.06c.145.123.286.248.422.377s.257.234.357.323l1.978,1.975,1.063-2.416Z" transform="translate(-112.947 -447.539)" fill="#444"/>
      <path id="패스_180" data-name="패스 180" d="M127.01,478.381l-.334.536-7.616.207-.017.025q.346.193.73.415t.789.476l3.89,2.437-.3.476L118,479.1l.334-.537,7.594-.208.014-.025c-.184-.1-.417-.234-.7-.4s-.538-.327-.782-.478L120.553,475l.3-.476Z" transform="translate(-112.217 -450.235)" fill="#444"/>
      <path id="패스_181" data-name="패스 181" d="M127.782,471.561a3.673,3.673,0,0,1,1.458,2.547,3.906,3.906,0,0,1-1.129,2.746l-1.178,1.366-5.5-4.757,1.322-1.535a3.2,3.2,0,0,1,5.024-.367Zm-.391.482q-2.315-2-4.318.319l-.859.993,4.712,4.077.76-.88Q129.786,474.116,127.391,472.043Z" transform="translate(-110.782 -451.906)" fill="#444"/>
      <path id="패스_182" data-name="패스 182" d="M134.247,471.626l-6.013-3.849-.024.018c.116.149.249.319.4.507s.3.393.459.608l3.079,4.244-.451.33-4.273-5.888.726-.527,5.762,3.679.026-.018-1.691-6.646.709-.514,4.271,5.887-.479.349-3.115-4.3c-.133-.181-.264-.37-.394-.565l-.357-.54-.025.018,1.778,6.924Z" transform="translate(-108.284 -454.802)" fill="#444"/>
      <path id="패스_183" data-name="패스 183" d="M140.279,467.126l-2-1.8L135.6,466.7l.265,2.68-.544.276-.761-7.813.479-.247,5.793,5.248Zm-4.453-4.09c-.078-.067-.2-.176-.347-.326s-.285-.286-.4-.4c.035.189.065.376.092.561s.05.343.071.476l.285,2.785,2.347-1.2Z" transform="translate(-105.308 -455.626)" fill="#444"/>
      <path id="패스_184" data-name="패스 184" d="M144.63,461.947a3.671,3.671,0,0,1-.03,2.938,3.886,3.886,0,0,1-2.361,1.8l-1.7.58-2.338-6.89,1.917-.655a3.2,3.2,0,0,1,4.516,2.232Zm-.58.22q-.986-2.906-3.886-1.92l-1.243.424,2,5.908,1.1-.374Q145.068,465.169,144.05,462.167Z" transform="translate(-103.791 -456.524)" fill="#444"/>
      <path id="패스_185" data-name="패스 185" d="M149.213,464.971l-3.917.757-1.376-7.148,3.915-.757.1.52-3.336.645.5,2.612,3.147-.607.1.52-3.146.607.571,2.975,3.336-.646Z" transform="translate(-101.404 -457.199)" fill="#444"/>
      <path id="패스_186" data-name="패스 186" d="M150.693,466.609a2.57,2.57,0,0,1-.458-.017,1.384,1.384,0,0,1-.329-.085l-.021-.529a1.832,1.832,0,0,0,.356.078,2.746,2.746,0,0,0,.422.014q1.129-.045,1.076-1.41l-.276-7.223.591-.021.275,7.2a2.147,2.147,0,0,1-.371,1.434A1.587,1.587,0,0,1,150.693,466.609Z" transform="translate(-98.916 -457.369)" fill="#444"/>
      <path id="패스_187" data-name="패스 187" d="M157.225,464.853l-3.982-.2.366-7.27,3.982.2-.025.529-3.394-.173-.135,2.659,3.2.163-.027.529-3.2-.162-.152,3.024,3.394.171Z" transform="translate(-97.515 -457.383)" fill="#444"/>
      <path id="패스_188" data-name="패스 188" d="M166.418,459.391,163,466.114l-.565-.12-.4-5.552c-.024-.255-.041-.487-.052-.7s-.014-.391-.013-.529c-.047.12-.112.272-.194.453s-.174.367-.278.561l-2.6,5.027-.568-.118-.425-7.526.6.126.275,5.16c.008.295.016.563.026.8s.01.476,0,.7c.088-.218.183-.441.285-.67s.222-.469.36-.726l2.388-4.572.588.123.391,5.187c.021.3.034.577.043.825s.009.483,0,.7c.079-.21.167-.428.265-.645s.217-.469.359-.744l2.334-4.614Z" transform="translate(-95.57 -457.289)" fill="#444"/>
      <path id="패스_189" data-name="패스 189" d="M167.56,467.747l-3.728-1.417,2.576-6.8,3.73,1.416-.19.5-3.174-1.21-.944,2.488,3,1.139-.187.5-3-1.139-1.073,2.83,3.177,1.209Z" transform="translate(-93.098 -456.49)" fill="#444"/>
      <path id="패스_190" data-name="패스 190" d="M167.708,467.813l3.354-6.456.524.275-3.109,5.976,3.026,1.579-.251.479Z" transform="translate(-91.481 -455.725)" fill="#444"/>
      <path id="패스_191" data-name="패스 191" d="M176.732,464.585a3.448,3.448,0,0,1,1.358,1.482,1.745,1.745,0,0,1-.332,1.647,1.842,1.842,0,0,1-1.1.829,2.389,2.389,0,0,1-1.288-.077l-.223,3.855-.577-.4.247-3.639-1.426-.979-1.774,2.586-.486-.334,4.111-6Zm-.336.4-.964-.665-1.757,2.562,1.132.779a2.047,2.047,0,0,0,1.36.436,1.481,1.481,0,0,0,1.074-.714,1.28,1.28,0,0,0,.241-1.25A2.865,2.865,0,0,0,176.4,464.984Z" transform="translate(-90.055 -454.808)" fill="#444"/>
      <path id="패스_192" data-name="패스 192" d="M177.992,470.854l4.132-1.536.487.432-4.769,1.735-1.862,2.106-.441-.393,1.835-2.075,1.154-5,.487.432Z" transform="translate(-88.215 -453.735)" fill="#444"/>
      <path id="패스_193" data-name="패스 193" d="M183.222,478.04a1.805,1.805,0,0,1-1.066.424,1.97,1.97,0,0,1-1.081-.289,3.556,3.556,0,0,1-.974-.88,6.359,6.359,0,0,1-.639-.962,4.378,4.378,0,0,1-.332-.8l.458-.359a5.426,5.426,0,0,0,.346.869,5.142,5.142,0,0,0,.6.951,2.351,2.351,0,0,0,1.118.85,1.356,1.356,0,0,0,1.6-.843,1.641,1.641,0,0,0,.007-.782,7.851,7.851,0,0,0-.32-1.091,5.677,5.677,0,0,1-.286-1.11,1.877,1.877,0,0,1,.085-.923,1.808,1.808,0,0,1,.611-.781,1.653,1.653,0,0,1,.974-.381,1.87,1.87,0,0,1,1,.259,3.171,3.171,0,0,1,.907.811,4.872,4.872,0,0,1,.54.856,4.693,4.693,0,0,1,.337.889l-.52.163a4.494,4.494,0,0,0-.786-1.6,2.082,2.082,0,0,0-1.018-.76,1.1,1.1,0,0,0-1.057.228,1.233,1.233,0,0,0-.461.624,1.582,1.582,0,0,0-.007.758,8.057,8.057,0,0,0,.279.983,8,8,0,0,1,.313,1.159,1.91,1.91,0,0,1-.041.945A1.634,1.634,0,0,1,183.222,478.04Z" transform="translate(-86.717 -451.316)" fill="#444"/>
      <path id="패스_194" data-name="패스 194" d="M184.383,483.792l-.3-.512,3.055-1.79-2.09-3.581-3.057,1.79-.3-.51,6.269-3.676.3.51-2.755,1.617,2.087,3.581,2.758-1.615.3.509Z" transform="translate(-85.647 -449.821)" fill="#444"/>
      <path id="패스_195" data-name="패스 195" d="M189.724,487.842a4.887,4.887,0,0,1-1.954.363,2.892,2.892,0,0,1-1.623-.547,3.237,3.237,0,0,1-1.093-1.515,3.3,3.3,0,0,1-.217-1.876,2.867,2.867,0,0,1,.84-1.5,4.95,4.95,0,0,1,1.695-1.046,4.745,4.745,0,0,1,1.946-.354,2.925,2.925,0,0,1,1.62.564,3.736,3.736,0,0,1,1.316,3.353,2.843,2.843,0,0,1-.806,1.487A4.9,4.9,0,0,1,189.724,487.842ZM187.6,482.3a4.634,4.634,0,0,0-1.478.879,2.376,2.376,0,0,0-.736,1.226,3.025,3.025,0,0,0,1.076,2.8,2.32,2.32,0,0,0,1.359.4,4.7,4.7,0,0,0,1.682-.353,3.757,3.757,0,0,0,1.964-1.465,2.34,2.34,0,0,0,.079-2.137,2.632,2.632,0,0,0-.918-1.26,2.35,2.35,0,0,0-1.363-.428A4.433,4.433,0,0,0,187.6,482.3Z" transform="translate(-84.36 -447.38)" fill="#444"/>
      <path id="패스_196" data-name="패스 196" d="M193.685,488.81q.576,2.557-1.427,3.01a2.067,2.067,0,0,1-1.752-.3,3.107,3.107,0,0,1-1.043-1.91l-.235-1.044-2.9.658-.129-.575,7.086-1.608Zm-.519.054-.258-1.131-3.173.718.221.985a3.082,3.082,0,0,0,.719,1.515,1.428,1.428,0,0,0,1.417.278,1.388,1.388,0,0,0,1.051-.754A2.634,2.634,0,0,0,193.166,488.864Z" transform="translate(-83.768 -445.013)" fill="#444"/>
    </g>
    <g id="그룹_397" data-name="그룹 397" transform="translate(0 53.232)">
      <ellipse id="타원_69" data-name="타원 69" cx="4.462" cy="4.472" rx="4.462" ry="4.472" transform="translate(107.077)" fill="#444"/>
      <ellipse id="타원_70" data-name="타원 70" cx="4.462" cy="4.472" rx="4.462" ry="4.472" fill="#444"/>
    </g>
    <g id="그룹_398" data-name="그룹 398" transform="translate(3.274 68.528)">
      <path id="패스_178-2" data-name="패스 178" d="M113.918,489.884l.157-.57,3.412.95,1.107-4-3.412-.948.159-.57,7,1.946-.157.571-3.079-.857-1.105,4,3.077.856-.157.568Z" transform="translate(-12.294 -483.732)" fill="#444"/>
      <path id="패스_179-2" data-name="패스 179" d="M116.5,486.087l2.681.125,1.212-2.762-1.9-1.906.247-.56,5.523,5.568-.217.495-7.8-.391Zm6.028.343c.1,0,.264.013.478.031s.4.041.561.06c-.145-.123-.286-.248-.422-.377s-.257-.234-.357-.323l-1.978-1.975-1.063,2.416Z" transform="translate(-17.516 -473.614)" fill="#444"/>
      <path id="패스_180-2" data-name="패스 180" d="M118,479.094l.334-.536,7.616-.207.017-.025q-.347-.193-.73-.415t-.789-.476L120.555,475l.3-.476,6.159,3.859-.334.537-7.594.208-.014.026c.184.1.417.234.7.4s.539.327.782.478l3.907,2.45-.3.476Z" transform="translate(-22.744 -460.363)" fill="#444"/>
      <path id="패스_181-2" data-name="패스 181" d="M122.9,477.173a3.673,3.673,0,0,1-1.458-2.547,3.907,3.907,0,0,1,1.129-2.746l1.178-1.366,5.5,4.757-1.322,1.535a3.2,3.2,0,0,1-5.024.367Zm.391-.482q2.315,2,4.318-.319l.859-.993-4.712-4.077-.76.88Q120.895,474.618,123.29,476.691Z" transform="translate(-29.852 -449.951)" fill="#444"/>
      <path id="패스_182-2" data-name="패스 182" d="M130.405,465.429l6.013,3.849.024-.018c-.116-.149-.249-.319-.4-.507s-.3-.393-.459-.608L132.5,463.9l.451-.33,4.273,5.888-.726.527-5.762-3.679-.025.018,1.691,6.646-.709.514-4.271-5.887.479-.349,3.115,4.3c.133.181.264.37.394.565l.357.54.026-.018-1.779-6.924Z" transform="translate(-46.322 -435.375)" fill="#444"/>
      <path id="패스_183-2" data-name="패스 183" d="M135.112,464.123l2,1.8,2.683-1.369-.265-2.68.544-.276.761,7.813-.479.247-5.793-5.248Zm4.453,4.09c.078.067.2.176.347.326s.285.286.4.4c-.035-.189-.065-.376-.092-.561s-.05-.343-.071-.476l-.285-2.785-2.347,1.2Z" transform="translate(-60.036 -428.745)" fill="#444"/>
      <path id="패스_184-2" data-name="패스 184" d="M138.484,464.755a3.672,3.672,0,0,1,.03-2.938,3.885,3.885,0,0,1,2.361-1.8l1.7-.58,2.338,6.89-1.917.655a3.2,3.2,0,0,1-4.516-2.232Zm.58-.22q.986,2.906,3.886,1.92l1.243-.424-2-5.908-1.1.374Q138.046,461.533,139.064,464.536Z" transform="translate(-69.276 -423.3)" fill="#444"/>
      <path id="패스_185-2" data-name="패스 185" d="M143.92,458.58l3.917-.757,1.376,7.148-3.916.757-.1-.52,3.336-.645-.5-2.612-3.147.607-.1-.52,3.146-.607-.571-2.975-3.336.646Z" transform="translate(-81.683 -419.473)" fill="#444"/>
      <path id="패스_186-2" data-name="패스 186" d="M151.523,457.419a2.57,2.57,0,0,1,.458.017,1.384,1.384,0,0,1,.329.085l.021.529a1.836,1.836,0,0,0-.356-.078,2.739,2.739,0,0,0-.422-.014q-1.129.045-1.076,1.41l.276,7.223-.591.021-.275-7.2a2.147,2.147,0,0,1,.371-1.434A1.587,1.587,0,0,1,151.523,457.419Z" transform="translate(-93.254 -419.78)" fill="#444"/>
      <path id="패스_187-2" data-name="패스 187" d="M153.609,457.383l3.982.2-.366,7.27-3.982-.2.026-.529,3.394.173.135-2.659-3.2-.163.027-.529,3.2.162.152-3.024-3.394-.172Z" transform="translate(-103.273 -417.974)" fill="#444"/>
      <path id="패스_188-2" data-name="패스 188" d="M157.9,464.331l3.42-6.723.565.12.4,5.552c.024.255.041.488.052.7s.014.391.013.529c.047-.12.112-.272.194-.453s.174-.367.278-.561l2.6-5.027.568.118.425,7.526-.6-.126-.275-5.16c-.008-.295-.016-.563-.025-.8s-.01-.476,0-.7c-.088.218-.183.441-.285.67s-.223.469-.36.726l-2.388,4.572-.588-.123-.391-5.187c-.021-.3-.034-.577-.043-.825s-.008-.483,0-.7c-.079.21-.167.428-.265.645s-.217.469-.359.744l-2.334,4.614Z" transform="translate(-118.706 -419.554)" fill="#444"/>
      <path id="패스_189-2" data-name="패스 189" d="M166.41,459.525l3.728,1.417-2.576,6.805-3.73-1.416.19-.5,3.174,1.21.944-2.489-3-1.139.187-.5,3,1.139,1.073-2.83-3.177-1.209Z" transform="translate(-130.826 -423.904)" fill="#444"/>
      <path id="패스_190-2" data-name="패스 190" d="M171.587,463.209l-3.354,6.456-.524-.275,3.109-5.976-3.026-1.579.251-.479Z" transform="translate(-137.767 -428.419)" fill="#444"/>
      <path id="패스_191-2" data-name="패스 191" d="M172.575,471.292a3.448,3.448,0,0,1-1.358-1.482,1.745,1.745,0,0,1,.332-1.647,1.842,1.842,0,0,1,1.1-.829,2.388,2.388,0,0,1,1.288.077l.222-3.855.577.4-.247,3.639,1.426.979,1.774-2.586.486.334-4.111,6Zm.336-.4.964.665,1.757-2.562-1.132-.779a2.047,2.047,0,0,0-1.36-.436,1.481,1.481,0,0,0-1.074.714,1.28,1.28,0,0,0-.241,1.25A2.865,2.865,0,0,0,172.91,470.893Z" transform="translate(-149.205 -434.191)" fill="#444"/>
      <path id="패스_192-2" data-name="패스 192" d="M180.16,468.865l-4.132,1.536-.487-.432,4.769-1.735,1.862-2.106.441.393-1.835,2.075-1.154,5-.487-.432Z" transform="translate(-159.891 -439.105)" fill="#444"/>
      <path id="패스_193-2" data-name="패스 193" d="M183.018,472.354a1.8,1.8,0,0,1,1.066-.424,1.97,1.97,0,0,1,1.081.289,3.556,3.556,0,0,1,.974.88,6.359,6.359,0,0,1,.639.962,4.377,4.377,0,0,1,.332.8l-.458.359a5.424,5.424,0,0,0-.346-.869,5.139,5.139,0,0,0-.6-.951,2.351,2.351,0,0,0-1.118-.85,1.356,1.356,0,0,0-1.6.843,1.641,1.641,0,0,0-.007.782,7.858,7.858,0,0,0,.32,1.091,5.678,5.678,0,0,1,.286,1.11,1.877,1.877,0,0,1-.085.923,1.808,1.808,0,0,1-.611.781,1.652,1.652,0,0,1-.974.381,1.87,1.87,0,0,1-1-.259,3.171,3.171,0,0,1-.907-.811,4.872,4.872,0,0,1-.54-.856,4.691,4.691,0,0,1-.337-.889l.52-.163a4.494,4.494,0,0,0,.786,1.6,2.082,2.082,0,0,0,1.018.76,1.1,1.1,0,0,0,1.057-.228,1.233,1.233,0,0,0,.461-.624,1.582,1.582,0,0,0,.007-.758,8.052,8.052,0,0,0-.279-.983,8,8,0,0,1-.313-1.159,1.911,1.911,0,0,1,.041-.945A1.633,1.633,0,0,1,183.018,472.354Z" transform="translate(-169.478 -452.2)" fill="#444"/>
      <path id="패스_194-2" data-name="패스 194" d="M187.967,475.513l.3.512-3.055,1.79,2.09,3.581,3.057-1.79.3.51-6.269,3.676-.3-.51,2.755-1.617-2.087-3.581L182,479.7l-.3-.509Z" transform="translate(-176.657 -462.606)" fill="#444"/>
      <path id="패스_195-2" data-name="패스 195" d="M187.361,481.73a4.889,4.889,0,0,1,1.954-.363,2.892,2.892,0,0,1,1.623.547,3.237,3.237,0,0,1,1.093,1.515,3.3,3.3,0,0,1,.217,1.876,2.867,2.867,0,0,1-.84,1.5,4.95,4.95,0,0,1-1.695,1.046,4.745,4.745,0,0,1-1.946.354,2.925,2.925,0,0,1-1.62-.564,3.736,3.736,0,0,1-1.316-3.353,2.843,2.843,0,0,1,.806-1.487A4.9,4.9,0,0,1,187.361,481.73Zm2.127,5.538a4.634,4.634,0,0,0,1.478-.879,2.375,2.375,0,0,0,.735-1.226,3.025,3.025,0,0,0-1.076-2.8,2.32,2.32,0,0,0-1.359-.4,4.7,4.7,0,0,0-1.682.353,3.757,3.757,0,0,0-1.964,1.465,2.34,2.34,0,0,0-.079,2.137,2.632,2.632,0,0,0,.918,1.26,2.35,2.35,0,0,0,1.363.428A4.433,4.433,0,0,0,189.488,487.268Z" transform="translate(-182.679 -475.313)" fill="#444"/>
      <path id="패스_196-2" data-name="패스 196" d="M186.33,490.121q-.576-2.557,1.427-3.01a2.067,2.067,0,0,1,1.752.3,3.106,3.106,0,0,1,1.043,1.91l.235,1.044,2.9-.658.129.575-7.086,1.608Zm.519-.054.258,1.131,3.173-.719-.221-.985a3.082,3.082,0,0,0-.719-1.515,1.428,1.428,0,0,0-1.417-.278,1.388,1.388,0,0,0-1.052.754A2.634,2.634,0,0,0,186.848,490.067Z" transform="translate(-186.201 -487.04)" fill="#444"/>
    </g>
  </g>
</svg>
