<svg id="그룹_545" data-name="그룹 545" xmlns="http://www.w3.org/2000/svg" width="23.806" height="23.805" viewBox="0 0 23.806 23.805">
  <path id="패스_291" data-name="패스 291" d="M972,312a11.9,11.9,0,1,0-13.762,11.758v-8.317h-3.022V312h3.022v-2.622c0-2.983,1.777-4.631,4.5-4.631a18.336,18.336,0,0,1,2.664.232v2.929h-1.5a1.72,1.72,0,0,0-1.94,1.859V312h3.3l-.528,3.441h-2.773v8.317A11.906,11.906,0,0,0,972,312Z" transform="translate(-948.192 -300.101)" fill="#333"/>
  <path id="패스_292" data-name="패스 292" d="M968.142,317.7l.528-3.441h-3.3v-2.232a1.72,1.72,0,0,1,1.94-1.859h1.5v-2.929a18.337,18.337,0,0,0-2.664-.232c-2.719,0-4.5,1.648-4.5,4.631v2.622h-3.022V317.7h3.022v8.317a12.026,12.026,0,0,0,3.719,0V317.7Z" transform="translate(-951.606 -302.362)" fill="#fff"/>
</svg>
