<svg id="그룹_549" data-name="그룹 549" xmlns="http://www.w3.org/2000/svg" width="23.805" height="23.805" viewBox="0 0 23.805 23.805">
  <circle id="타원_201" data-name="타원 201" cx="11.903" cy="11.903" r="11.903" transform="translate(0 0)" fill="#333"/>
  <g id="그룹_548" data-name="그룹 548" transform="translate(4.925 4.908)">
    <g id="그룹_547" data-name="그룹 547">
      <path id="패스_294" data-name="패스 294" d="M970.976,365.681a.818.818,0,1,0,.818.818A.818.818,0,0,0,970.976,365.681Z" transform="translate(-960.304 -363.189)" fill="#fff"/>
      <path id="패스_295" data-name="패스 295" d="M964.3,367.24a3.437,3.437,0,1,0,3.437,3.437A3.441,3.441,0,0,0,964.3,367.24Zm0,5.638a2.2,2.2,0,1,1,2.2-2.2A2.2,2.2,0,0,1,964.3,372.878Z" transform="translate(-957.262 -363.699)" fill="#fff"/>
      <path id="패스_296" data-name="패스 296" d="M965.275,375.933H959.7a4.2,4.2,0,0,1-4.192-4.192v-5.572a4.2,4.2,0,0,1,4.192-4.192h5.572a4.2,4.2,0,0,1,4.192,4.192v5.572A4.2,4.2,0,0,1,965.275,375.933ZM959.7,363.29a2.882,2.882,0,0,0-2.879,2.879v5.572a2.882,2.882,0,0,0,2.879,2.879h5.572a2.882,2.882,0,0,0,2.88-2.879v-5.572a2.882,2.882,0,0,0-2.88-2.879Z" transform="translate(-955.512 -361.977)" fill="#fff"/>
    </g>
  </g>
</svg>
