<svg xmlns="http://www.w3.org/2000/svg" width="143.438" height="53.491" viewBox="0 0 143.438 53.491">
  <g id="그룹_355" data-name="그룹 355" transform="translate(-224.624 -522.995)">
    <g id="그룹_354" data-name="그룹 354">
      <path id="패스_135" data-name="패스 135" d="M228.089,533.457a4.581,4.581,0,0,0-.819-2.835,2.9,2.9,0,0,0-2.646-1.071v-.63a37.671,37.671,0,0,0,8.252-1.764h.882v44.412a3,3,0,0,0,2.9,3.338v.567H225.191v-.567a3.114,3.114,0,0,0,2.9-3.338Z" fill="#b99dc3"/>
      <path id="패스_136" data-name="패스 136" d="M264.689,568.671a17.657,17.657,0,0,0,3.086-9.764V548.26a4.583,4.583,0,0,0-.818-2.834,3.093,3.093,0,0,0-2.646-1.134v-.567a36.113,36.113,0,0,0,8.253-1.764h.944V564.64a26.429,26.429,0,0,0,.63,5.354,8.947,8.947,0,0,0,2.079,4.6v.566h-6.488a16.717,16.717,0,0,1-1.135-4.283,31.643,31.643,0,0,1-.629-6.362c-3.024,7.307-7.5,10.96-13.481,11.024q-12,0-12.474-11.907V548.26a4.577,4.577,0,0,0-.819-2.834,3.092,3.092,0,0,0-2.646-1.134v-.567a37.668,37.668,0,0,0,8.253-1.764h.882c0,3.654,0,7.307.063,10.9v10.962a21.8,21.8,0,0,0,.63,5.48,7.152,7.152,0,0,0,2.457,3.968,7.567,7.567,0,0,0,5.354,1.2A12.386,12.386,0,0,0,264.689,568.671Z" fill="#b99dc3"/>
      <path id="패스_137" data-name="패스 137" d="M292.6,546.118a11.972,11.972,0,0,1,9.072-4.22c3.906.063,6.8,1.071,8.756,3.15,1.89,2.079,2.9,5.039,3.087,8.882v17.639a3,3,0,0,0,2.9,3.338v.567H304.943v-.567a3.157,3.157,0,0,0,2.9-3.338c0-2.961,0-5.984-.063-8.945v-8.946a24.546,24.546,0,0,0-.566-5.355,7.423,7.423,0,0,0-2.332-3.9,7.692,7.692,0,0,0-5.1-1.386,9.191,9.191,0,0,0-6.3,3.213,20.634,20.634,0,0,0-4.094,6.8,25.434,25.434,0,0,0-1.638,7.119v11.4a3,3,0,0,0,2.9,3.338v.567H279.177v-.567a.234.234,0,0,0,.189-.062,3.122,3.122,0,0,0,2.709-3.276V548.575a4.577,4.577,0,0,0-.819-2.834,3.092,3.092,0,0,0-2.646-1.134v-.567a35.205,35.205,0,0,0,8-1.764h.882V555.19A26.835,26.835,0,0,1,292.6,546.118Z" fill="#b99dc3"/>
      <path id="패스_138" data-name="패스 138" d="M320.566,561.112a17.789,17.789,0,0,1,6.552-3.276,79.1,79.1,0,0,1,14.425-2.268c1.513-.126,3.024-.252,4.536-.441,0-4.158-.945-7.307-2.834-9.386a9.636,9.636,0,0,0-5.607-2.709,18.344,18.344,0,0,0-5.229.126,9.185,9.185,0,0,0-4.6,2.142,5.753,5.753,0,0,0-1.638,4.787q.663,3.5-2.834,3.969c-3.213.189-4.473-1.323-3.78-4.473a10.6,10.6,0,0,1,4.976-4.976,22.249,22.249,0,0,1,5.922-2.142,33.594,33.594,0,0,1,6.174-.567,21.38,21.38,0,0,1,7.118,1.2,12.885,12.885,0,0,1,5.859,4.158c1.449,1.952,2.142,4.6,2.142,7.937v12.977a15.682,15.682,0,0,0,.252,3.78,2.337,2.337,0,0,0,2.394,2.079,1.814,1.814,0,0,0,1.449-.819,4.163,4.163,0,0,0,.629-1.7,7.966,7.966,0,0,0,.064-1.7h.63a8.024,8.024,0,0,1-1.008,4.41c-.694,1.071-2.142,1.574-4.221,1.638q-3.118,0-4.347-1.89a11.587,11.587,0,0,1-1.763-4.914c-3.78,4.535-8.253,6.8-13.356,6.8a28.786,28.786,0,0,1-6.362-.567,14.318,14.318,0,0,1-5.985-2.583,6.859,6.859,0,0,1-2.709-5.481A8.56,8.56,0,0,1,320.566,561.112Zm22.867-4.788-2.519.378a62.356,62.356,0,0,0-7.5,1.449,20.064,20.064,0,0,0-6.93,3.213,9.019,9.019,0,0,0-3.4,6.425,6.593,6.593,0,0,0,2.394,5.1,9.823,9.823,0,0,0,5.354,1.953,15.389,15.389,0,0,0,11.15-3.213,15.6,15.6,0,0,0,4.1-5.229V555.946Z" fill="#b99dc3"/>
      <circle id="타원_64" data-name="타원 64" cx="3.646" cy="3.646" r="3.646" transform="translate(360.77 569.194)" fill="#f5dce3"/>
      <g id="그룹_353" data-name="그룹 353">
        <ellipse id="타원_65" data-name="타원 65" cx="5.756" cy="1.053" rx="5.756" ry="1.053" transform="translate(331.133 537.841)" fill="#a987b4"/>
        <path id="패스_139" data-name="패스 139" d="M346.3,525.171a1.017,1.017,0,0,0-.562,1.866l-.07.064s-6.949,14.917-8.493-2.07l-.017-.043a1.02,1.02,0,1,0-.441.03c-.038.676-1.006,16.411-8.633,2.224l-.1-.164a1.017,1.017,0,1,0-.495.129,1.064,1.064,0,0,0,.14-.011v.081l3.334,10.915a16.737,16.737,0,0,1,11.934,0l3.252-11a.948.948,0,0,0,.152.013,1.018,1.018,0,1,0,0-2.036Z" fill="#a987b4"/>
        <path id="패스_140" data-name="패스 140" d="M332.632,527.223a.843.843,0,1,0-.391.088l-.16,4.669s1.509,1.4,2.246-.175Z" fill="#a987b4"/>
        <path id="패스_141" data-name="패스 141" d="M342.294,526.47a.842.842,0,1,0-1.188.767L339.346,532c.737,1.58,2.246.176,2.246.176l-.167-4.861h.027A.842.842,0,0,0,342.294,526.47Z" fill="#a987b4"/>
      </g>
    </g>
  </g>
</svg>
