<svg id="그룹_546" data-name="그룹 546" xmlns="http://www.w3.org/2000/svg" width="23.805" height="23.805" viewBox="0 0 23.805 23.805">
  <circle id="타원_200" data-name="타원 200" cx="11.903" cy="11.903" r="11.903" transform="translate(0 0)" fill="#333"/>
  <path id="패스_293" data-name="패스 293" d="M969.37,420.27a5.355,5.355,0,0,1-1.313.375c.211-.036.521-.418.646-.573a2.407,2.407,0,0,0,.435-.795c.011-.022.02-.051,0-.068a.077.077,0,0,0-.07.005,6.683,6.683,0,0,1-1.556.6.105.105,0,0,1-.108-.029,1.211,1.211,0,0,0-.136-.139,2.737,2.737,0,0,0-.754-.462,2.621,2.621,0,0,0-1.156-.186,2.759,2.759,0,0,0-1.1.31,2.827,2.827,0,0,0-.885.723,2.713,2.713,0,0,0-.529,1.059,2.866,2.866,0,0,0-.028,1.118c.009.063,0,.071-.054.063a8.312,8.312,0,0,1-5.348-2.723c-.063-.071-.1-.071-.147.005a2.711,2.711,0,0,0,.462,3.2c.1.1.213.2.328.289a2.722,2.722,0,0,1-1.032-.289c-.062-.039-.094-.017-.1.055a1.6,1.6,0,0,0,.017.306,2.745,2.745,0,0,0,1.69,2.187,1.6,1.6,0,0,0,.343.1,3.04,3.04,0,0,1-1.012.032c-.074-.014-.1.023-.074.094a2.848,2.848,0,0,0,2.127,1.781c.1.017.193.017.289.04-.005.009-.011.009-.017.017a3.37,3.37,0,0,1-1.453.77,5.2,5.2,0,0,1-2.206.283c-.118-.018-.143-.016-.176,0s0,.048.034.079c.15.1.3.187.46.272a7.247,7.247,0,0,0,1.474.59,7.853,7.853,0,0,0,7.625-1.783,8,8,0,0,0,2.11-5.837c0-.084.1-.131.158-.175a5.141,5.141,0,0,0,1.037-1.079.323.323,0,0,0,.069-.207v-.011C969.423,420.236,969.423,420.247,969.37,420.27Z" transform="translate(-950.891 -412.446)" fill="#fff"/>
</svg>
