<svg id="그룹_550" data-name="그룹 550" xmlns="http://www.w3.org/2000/svg" width="23.805" height="23.805" viewBox="0 0 23.805 23.805">
  <circle id="타원_202" data-name="타원 202" cx="11.903" cy="11.903" r="11.903" transform="translate(0 0)" fill="#333"/>
  <path id="패스_297" data-name="패스 297" d="M1023.6,313.874a2.858,2.858,0,0,0-2.858-2.858h-7.308a2.858,2.858,0,0,0-2.859,2.858v3.4a2.858,2.858,0,0,0,2.859,2.858h7.308a2.858,2.858,0,0,0,2.858-2.858Zm-4.3,1.955-3.277,1.621c-.129.069-.565-.024-.565-.17v-3.328c0-.148.44-.241.569-.168l3.137,1.707C1019.3,315.567,1019.439,315.757,1019.306,315.829Z" transform="translate(-1005.329 -303.672)" fill="#fff"/>
</svg>
