<svg xmlns="http://www.w3.org/2000/svg" xmlns:xlink="http://www.w3.org/1999/xlink" width="2751.882" height="4873.155" viewBox="0 0 2751.882 4873.155">
  <defs>
    <radialGradient id="radial-gradient" cx="0.5" cy="0.5" r="0.506" gradientTransform="translate(0.336) scale(0.328 1)" gradientUnits="objectBoundingBox">
      <stop offset="0.002" stop-color="#babdd4"/>
      <stop offset="0.388" stop-color="#babdd4"/>
      <stop offset="0.726" stop-color="#a1a9c7"/>
      <stop offset="1" stop-color="#929dbf"/>
    </radialGradient>
  </defs>
  <g id="그룹_1028" data-name="그룹 1028" transform="translate(422.945 -849.269)">
    <g id="그룹_1027" data-name="그룹 1027">
      <g id="그룹_1024" data-name="그룹 1024" transform="translate(-241.708)">
        <path id="패스_835" data-name="패스 835" d="M465.712,147.13l23.451-2.37-23.639-2.389-2.5-22.274-2.516,22.453-23.451,2.37,23.639,2.389,2.5,22.274Z" transform="translate(-411.104 1160.349)" fill="#f5dce3"/>
        <path id="패스_836" data-name="패스 836" d="M42.574,151.575l27.306-2.76-27.525-2.782L39.449,120.1,36.52,146.241,9.213,149l27.525,2.782,2.906,25.936Z" transform="translate(2035.253 1537.682)" fill="#d1bbd4"/>
        <g id="합치기_53" data-name="합치기 53" transform="matrix(0.978, -0.208, 0.208, 0.978, 2248.736, 857.493)" fill="none">
          <path d="M19.777,22.626l-6.61,14.628L18.6,22.047,6.381,33.009l11.194-11.76L1.959,26.916l15.2-6.861L.208,19.4l16.8-.588L1.533,12.2,17.591,17.7,5.841,5.81,18.4,16.739,12.136,1.718l7.511,14.646L19.981.2l.968,16.043,6.61-14.628L22.123,16.828,34.344,5.864,23.15,17.625l15.616-5.667-15.2,6.86,16.948.657-16.8.588,15.476,6.614-16.057-5.5L34.884,33.063,22.32,22.135l6.269,15.02L21.078,22.508l-.333,16.162Z" stroke="none"/>
          <path d="M 20.19740867614746 22.45979309082031 L 21.96807098388672 22.05152893066406 L 21.98924255371094 22.09281349182129 L 22.53617095947266 21.69809913635254 L 23.46088027954102 20.22605895996094 L 23.46542930603027 20.22761917114258 L 23.54195976257324 19.81745147705078 L 23.53032112121582 19.8169994354248 L 23.19883346557617 18.11760139465332 L 22.82311630249023 17.54300880432129 L 22.79044151306152 17.57231903076172 L 21.26851081848145 16.55012512207031 L 20.52459526062012 16.41318702697754 L 18.75704193115234 16.82070922851562 L 18.73642158508301 16.78050422668457 L 18.19399452209473 17.17196464538574 L 17.26654052734375 18.64846038818359 L 17.25862312316895 18.64574432373047 L 17.18220710754395 19.05536079406738 L 17.19715118408203 19.05593872070312 L 17.52990341186523 20.76169776916504 L 17.90223503112793 21.33111381530762 L 17.93430137634277 21.30234909057617 L 19.45382308959961 22.32291793823242 L 20.19740867614746 22.45979309082031 M 20.7450008392334 38.66939926147461 L 19.77652168273926 22.62631988525391 L 13.16700077056885 37.25460052490234 L 18.60204124450684 22.04674911499023 L 6.381000995635986 33.00930023193359 L 17.57502174377441 21.24897956848145 L 1.959301114082336 26.91629981994629 L 17.1584415435791 20.05518913269043 L 0.2079011499881744 19.39859962463379 L 17.00650024414062 18.81013870239258 L 1.532701134681702 12.19679927825928 L 17.59087181091309 17.7025089263916 L 5.841001033782959 5.810399532318115 L 18.40467071533203 16.73908042907715 L 12.13560104370117 1.718099594116211 L 19.6468505859375 16.3643798828125 L 19.98090171813965 0.2042995989322662 L 20.94938087463379 16.24737930297852 L 27.55890083312988 1.619099617004395 L 22.1226806640625 16.82794952392578 L 34.34400177001953 5.864399433135986 L 23.1500415802002 17.62470054626465 L 38.76570129394531 11.95739936828613 L 23.5690803527832 18.8177490234375 L 40.5171012878418 19.47509956359863 L 23.71761131286621 20.06279945373535 L 39.19320297241211 26.67689895629883 L 23.13657188415527 21.17201042175293 L 34.88400268554688 33.06330108642578 L 22.32038116455078 22.13467025756836 L 28.58940124511719 37.15470123291016 L 21.07825088500977 22.50783920288086 L 20.7450008392334 38.66939926147461 Z" stroke="none" fill="#e3bee8"/>
        </g>
        <path id="패스_834" data-name="패스 834" d="M327.806,151.575l27.306-2.76-27.525-2.782L324.681,120.1l-2.929,26.144L294.446,149l27.525,2.782,2.906,25.936Z" transform="translate(1895.929 855.846)" fill="#babdd4"/>
        <path id="패스_833" data-name="패스 833" d="M76.236,13.486C76.2,11.6,63.151,10.372,50.184,9.765A13.02,13.02,0,0,0,38,.715a11.839,11.839,0,0,0-11.841,8.6C13.209,9.433.2,10.166.235,12.056s13.086,3.114,26.052,3.721a13.023,13.023,0,0,0,12.184,9.05,11.839,11.839,0,0,0,11.84-8.6C63.262,16.11,76.272,15.376,76.236,13.486ZM.838,12.071c.2-.934,9.132-2.045,25.181-2.188a11.554,11.554,0,0,0-.263,2.653,11.867,11.867,0,0,0,.366,2.665C10.057,14.455,1.079,13.008.838,12.071Zm49.613,3.588a11.5,11.5,0,0,0,.263-2.653,11.809,11.809,0,0,0-.366-2.665c16.05.746,25.026,2.191,25.283,3.134C75.41,14.408,66.483,15.516,50.451,15.659Z" transform="matrix(0.914, -0.407, 0.407, 0.914, -145.943, 1187.399)" fill="url(#radial-gradient)"/>
      </g>
      <path id="패스_838" data-name="패스 838" d="M293.725,207.347a20.961,20.961,0,0,1,14.454-19.922,20.956,20.956,0,1,0-.948,39.51A20.96,20.96,0,0,1,293.725,207.347Z" transform="translate(1712.74 2855.969)" fill="#babdd4"/>
    </g>
    <g id="그룹_1026" data-name="그룹 1026" transform="translate(-215.938)">
      <g id="그룹_1025" data-name="그룹 1025" transform="translate(-207.007 3488)">
        <path id="패스_835-2" data-name="패스 835" d="M464.274,147.13l22.274-2.37L464.1,142.371l-2.37-22.274-2.389,22.453-22.274,2.37,22.453,2.389,2.37,22.274Z" transform="translate(-273.788 310.835)" fill="#f5dce3"/>
        <path id="패스_836-2" data-name="패스 836" d="M40.9,151.575l25.936-2.76-26.144-2.782L37.931,120.1l-2.782,26.144L9.213,149l26.144,2.782,2.76,25.936Z" transform="translate(2503.138 688.167)" fill="#d1bbd4"/>
        <g id="합치기_53-2" data-name="합치기 53" transform="matrix(0.978, -0.208, 0.208, 0.978, 2706.369, 7.978)" fill="none">
          <path d="M18.6,22.375,12.154,37.039l5.33-15.231L5.738,32.872,16.514,21.023,1.591,26.838l14.538-7L0,19.354,16,18.6,1.334,12.154l15.23,5.329L5.5,5.738,17.35,16.515,11.536,1.591l7,14.538L19.019,0l.758,16L26.219,1.334l-5.329,15.23L32.635,5.5,21.858,17.35l14.924-5.815-14.538,7,16.129.483-16,.758,14.664,6.441-15.231-5.33L32.872,32.635,21.023,21.859l5.814,14.924-7-14.538-.483,16.129Z" stroke="none"/>
          <path d="M 18.90398788452148 22.19999504089355 L 20.66940498352051 21.82474517822266 L 21.11766052246094 21.51666831970215 L 22.10037612915039 20.00340843200684 L 22.19981002807617 19.46688652038574 L 21.82553672790527 17.70611953735352 L 21.51379203796387 17.25254058837891 L 20.00726318359375 16.27420806884766 L 19.46408653259277 16.17353820800781 L 17.70711898803711 16.54699516296387 L 17.25250244140625 16.85944366455078 L 16.2734260559082 18.3670654296875 L 16.17339897155762 18.90676498413086 L 16.54777336120605 20.66806221008301 L 16.85768508911133 21.11899185180664 L 18.36983871459961 22.10099792480469 L 18.90398788452148 22.19999504089355 M 19.35383987426758 38.37347793579102 L 18.59553146362305 22.37530708312988 L 12.15435028076172 37.03908538818359 L 17.48398017883301 21.80838775634766 L 5.737950325012207 32.87203598022461 L 16.51445960998535 21.02316665649414 L 1.590610504150391 26.83753776550293 L 16.12870025634766 19.83669662475586 L 5.493163826031378e-07 19.35419654846191 L 15.9985408782959 18.59585762023926 L 1.334380507469177 12.15442752838135 L 16.5643196105957 17.48384666442871 L 5.501150608062744 5.737977027893066 L 17.35029983520508 16.51486778259277 L 11.53563022613525 1.590617060661316 L 18.53643035888672 16.12835693359375 L 19.0189208984375 -2.939453224826138e-06 L 19.77727127075195 15.99910736083984 L 26.21864128112793 1.334397077560425 L 20.88947105407715 16.56443786621094 L 32.63505935668945 5.501186847686768 L 21.85842132568359 17.35040664672852 L 36.78239059448242 11.5356969833374 L 22.24447059631348 18.53677749633789 L 38.37300109863281 19.01927757263184 L 22.37470054626465 19.77759742736816 L 37.03886032104492 26.21879768371582 L 21.80792045593262 20.8890266418457 L 32.87184143066406 32.63525772094727 L 21.02316093444824 21.85898780822754 L 26.83736991882324 36.78261566162109 L 19.83635139465332 22.24417686462402 L 19.35383987426758 38.37347793579102 Z" stroke="none" fill="#e3bee8"/>
        </g>
        <path id="패스_834-2" data-name="패스 834" d="M326.132,151.575l25.936-2.76-26.144-2.782-2.76-25.936-2.782,26.144L294.446,149l26.144,2.782,2.76,25.936Z" transform="translate(2356.49 6.331)" fill="#babdd4"/>
        <path id="패스_833-2" data-name="패스 833" d="M72.791,11.952c0-1.874-12.479-2.844-24.891-3.2a11.939,11.939,0,0,0-23.009,0C12.48,9.108,0,10.078,0,11.952s12.48,2.844,24.891,3.2a11.939,11.939,0,0,0,23.009,0C60.312,14.8,72.791,13.826,72.791,11.952Zm-72.213,0c.212-.93,8.788-2.2,24.167-2.639a11.692,11.692,0,0,0,0,5.272C9.366,14.147.791,12.88.578,11.955Zm47.468,2.633a11.693,11.693,0,0,0,0-5.272c15.364.44,23.937,1.706,24.166,2.636C71.983,12.882,63.409,14.147,48.046,14.588Z" transform="matrix(0.914, -0.407, 0.407, 0.914, 0, 337.885)" fill="url(#radial-gradient)"/>
      </g>
      <path id="패스_839" data-name="패스 839" d="M293.725,207.347a20.961,20.961,0,0,1,14.454-19.922,20.956,20.956,0,1,0-.948,39.51A20.96,20.96,0,0,1,293.725,207.347Z" transform="translate(2202.669 5494.455)" fill="#babdd4"/>
    </g>
  </g>
</svg>
