<svg xmlns="http://www.w3.org/2000/svg" width="97.056" height="97.056" viewBox="0 0 97.056 97.056">
  <g id="그룹_477" data-name="그룹 477" transform="matrix(0.978, -0.208, 0.208, 0.978, -6724.788, 9554.546)">
    <path id="다각형_62" data-name="다각형 62" d="M59.242,0,44.852,38.928,83.781,24.539,46.079,41.89l37.7,17.352L44.852,44.852,59.242,83.781,41.89,46.079l-17.352,37.7L38.928,44.852,0,59.242,37.7,41.89,0,24.539,38.928,38.928,24.539,0,41.89,37.7Z" transform="translate(8578.566 -7944.569) rotate(22)" fill="#f1cece"/>
    <path id="다각형_63" data-name="다각형 63" d="M43.206,0,32.712,28.391,61.1,17.9l-27.5,12.655L61.1,43.206,32.712,32.712,43.206,61.1l-12.655-27.5L17.9,61.1,28.391,32.712,0,43.206,27.5,30.552,0,17.9,28.391,28.391,17.9,0,30.552,27.5Z" transform="matrix(0.719, 0.695, -0.695, 0.719, 8600.96, -7933.237)" fill="#f1cece"/>
  </g>
</svg>
