<svg xmlns="http://www.w3.org/2000/svg" width="168.724" height="206.81" viewBox="0 0 168.724 206.81">
  <g id="그룹_1009" data-name="그룹 1009" transform="translate(-1556.962 -2783.806)">
    <g id="합치기_26" data-name="합치기 26" transform="translate(1680.24 2784.583) rotate(-1)" fill="#f1cece">
      <path d="M 22.26029968261719 48.3332633972168 L 20.40069961547852 29.4913444519043 L 20.36213874816895 29.10065460205078 L 19.97345924377441 29.04542541503906 L 3.553873538970947 26.71234512329102 L 19.97345924377441 24.3787841796875 L 20.36212921142578 24.32354354858398 L 20.40069007873535 23.93286514282227 L 22.26029968261719 5.091147899627686 L 24.11952018737793 23.93278503417969 L 24.1580696105957 24.3234748840332 L 24.54674911499023 24.37871360778809 L 40.96661376953125 26.71234512329102 L 24.5467586517334 29.04549407958984 L 24.1580696105957 29.1007251739502 L 24.11952018737793 29.49142456054688 L 22.26029968261719 48.3332633972168 Z" stroke="none"/>
      <path d="M 22.26024627685547 43.24200057983398 L 23.69903945922852 28.66093444824219 L 37.41281509399414 26.71228981018066 L 23.69903945922852 24.76325416564941 L 22.26024436950684 10.18234157562256 L 20.82115936279297 24.76333427429199 L 7.107717037200928 26.71228981018066 L 20.82116889953613 28.66085433959961 L 22.26024627685547 43.24200057983398 M 22.26034927368164 53.42447280883789 L 19.90312004089355 29.54045486450195 L -4.260253945176373e-07 26.71239471435547 L 19.90311050415039 23.88375473022461 L 22.26034927368164 4.497070221987087e-06 L 24.61709976196289 23.8836841583252 L 44.52043914794922 26.71239471435547 L 24.61709976196289 29.54052543640137 L 22.26034927368164 53.42447280883789 Z" stroke="none" fill="#f1cece"/>
    </g>
    <g id="그룹_478" data-name="그룹 478" transform="matrix(0.978, -0.208, 0.208, 0.978, -5177.313, 12394.921)">
      <path id="다각형_62" data-name="다각형 62" d="M94.045,0,71.2,61.8,133,38.955,73.15,66.5,133,94.045,71.2,71.2,94.045,133,66.5,73.15,38.955,133,61.8,71.2,0,94.045,59.85,66.5,0,38.955,61.8,61.8,38.955,0,66.5,59.85Z" transform="translate(8597.004 -7944.569) rotate(22)" fill="#ffd491"/>
      <path id="다각형_63" data-name="다각형 63" d="M68.589,0,51.929,45.071,97,28.411,53.35,48.5,97,68.589,51.929,51.929,68.589,97,48.5,53.35,28.411,97l16.66-45.071L0,68.589,43.65,48.5,0,28.411l45.071,16.66L28.411,0,48.5,43.65Z" transform="matrix(0.719, 0.695, -0.695, 0.719, 8632.554, -7926.579)" fill="#ffd491"/>
    </g>
  </g>
</svg>
