<svg xmlns="http://www.w3.org/2000/svg" width="66.002" height="66.001" viewBox="0 0 66.002 66.001">
  <g id="합치기_27" data-name="합치기 27" transform="translate(10330.238 -8118.766)" fill="#e8d3eb">
    <path d="M -10292.720703125 8172.13134765625 L -10296.8046875 8156.58203125 L -10297.77734375 8156.607421875 L -10299.169921875 8163.32177734375 L -10298.27734375 8156.33984375 L -10299.1845703125 8155.99169921875 L -10308.4423828125 8169.35595703125 L -10300.3359375 8155.474609375 L -10301.0419921875 8154.8046875 L -10306.759765625 8158.55908203125 L -10301.205078125 8154.263671875 L -10301.599609375 8153.3759765625 L -10317.595703125 8156.279296875 L -10302.05078125 8152.197265625 L -10302.076171875 8151.22412109375 L -10308.7841796875 8149.83349609375 L -10301.8115234375 8150.72509765625 L -10301.462890625 8149.81787109375 L -10314.8291015625 8140.55859375 L -10300.9453125 8148.66650390625 L -10300.275390625 8147.96044921875 L -10304.037109375 8142.23095703125 L -10299.7353515625 8147.79345703125 L -10298.84765625 8147.3984375 L -10301.751953125 8131.3994140625 L -10297.6669921875 8146.951171875 L -10296.6943359375 8146.92578125 L -10295.3037109375 8140.220703125 L -10296.1953125 8147.19140625 L -10295.2880859375 8147.53955078125 L -10286.02734375 8134.17236328125 L -10294.134765625 8148.0546875 L -10293.4287109375 8148.724609375 L -10287.701171875 8144.9638671875 L -10293.265625 8149.267578125 L -10292.87109375 8150.1552734375 L -10276.8740234375 8147.25146484375 L -10292.419921875 8151.33447265625 L -10292.39453125 8152.3076171875 L -10285.6884765625 8153.69775390625 L -10292.6650390625 8152.8056640625 L -10293.013671875 8153.712890625 L -10279.6533203125 8162.9677734375 L -10293.5263671875 8154.865234375 L -10294.1962890625 8155.5712890625 L -10290.4365234375 8161.29736328125 L -10294.7373046875 8155.736328125 L -10295.625 8156.13134765625 L -10292.720703125 8172.13134765625 Z" stroke="none"/>
    <path d="M -10295.5224609375 8159.49560546875 L -10296.1171875 8156.220703125 L -10294.341796875 8155.43017578125 L -10294.287109375 8155.5009765625 L -10293.2744140625 8154.43359375 L -10290.578125 8156.0078125 L -10293.2978515625 8154.12353515625 L -10292.6015625 8152.31005859375 L -10292.5087890625 8152.32177734375 L -10292.546875 8150.8505859375 L -10289.51171875 8150.0537109375 L -10292.78125 8150.64697265625 L -10293.5712890625 8148.8720703125 L -10293.4990234375 8148.8154296875 L -10294.56640625 8147.80224609375 L -10292.9814453125 8145.08740234375 L -10294.876953125 8147.82421875 L -10296.69140625 8147.1279296875 L -10296.6796875 8147.03955078125 L -10298.150390625 8147.078125 L -10298.9501953125 8144.03369140625 L -10298.35546875 8147.30908203125 L -10300.130859375 8148.099609375 L -10300.1845703125 8148.0302734375 L -10301.197265625 8149.0986328125 L -10303.9130859375 8147.51220703125 L -10301.1787109375 8149.4072265625 L -10301.875 8151.220703125 L -10301.9619140625 8151.2099609375 L -10301.923828125 8152.68115234375 L -10304.9541015625 8153.4765625 L -10301.689453125 8152.88427734375 L -10300.8994140625 8154.6591796875 L -10300.970703125 8154.71484375 L -10299.904296875 8155.72705078125 L -10301.4873046875 8158.43701171875 L -10299.595703125 8155.70703125 L -10297.78125 8156.4033203125 L -10297.79296875 8156.49365234375 L -10296.3212890625 8156.455078125 L -10295.5224609375 8159.49560546875 M -10289.919921875 8184.7666015625 L -10297.2880859375 8156.708984375 L -10301.3046875 8176.080078125 L -10298.7734375 8156.2763671875 L -10315.3984375 8180.2744140625 L -10300.767578125 8155.22265625 L -10317.3056640625 8166.08203125 L -10301.5107421875 8153.8681640625 L -10330.23828125 8159.08154296875 L -10302.177734375 8151.7138671875 L -10321.5498046875 8147.69677734375 L -10301.748046875 8150.22900390625 L -10325.7451171875 8133.6044921875 L -10300.693359375 8148.23486328125 L -10311.5517578125 8131.6953125 L -10299.33984375 8147.48779296875 L -10304.552734375 8118.765625 L -10297.18359375 8146.82421875 L -10293.166015625 8127.451171875 L -10295.69921875 8147.2548828125 L -10279.07421875 8123.2568359375 L -10293.703125 8148.306640625 L -10277.166015625 8137.44921875 L -10292.9599609375 8149.6630859375 L -10264.236328125 8144.44970703125 L -10292.29296875 8151.81787109375 L -10272.9208984375 8155.83447265625 L -10292.728515625 8153.3017578125 L -10268.728515625 8169.927734375 L -10293.7783203125 8155.296875 L -10282.919921875 8171.8359375 L -10295.1328125 8156.0419921875 L -10289.919921875 8184.7666015625 Z" stroke="none" fill="#e8d3eb"/>
  </g>
</svg>
