<svg xmlns="http://www.w3.org/2000/svg" width="40" height="47" viewBox="0 0 40 47">
  <g id="그룹_1206" data-name="그룹 1206" transform="translate(-387 -248)">
    <path id="빼기_386" data-name="빼기 386" d="M20,46A20,20,0,0,1,0,26V0H40V26A20,20,0,0,1,20,46ZM16.538,15.629A4.661,4.661,0,0,0,13.075,17.2a5.742,5.742,0,0,0,0,7.586L20,32.372l6.925-7.586a5.742,5.742,0,0,0,0-7.586A4.6,4.6,0,0,0,20,17.2,4.66,4.66,0,0,0,16.538,15.629Z" transform="translate(387 249)" fill="#333"/>
    <line id="선_90" data-name="선 90" x2="40" transform="translate(387 248.5)" fill="none" stroke="#fff" stroke-width="1"/>
  </g>
</svg>
