<svg id="messenger-user-avatar" xmlns="http://www.w3.org/2000/svg" width="17.626" height="22.938" viewBox="0 0 17.626 22.938">
  <g id="그룹_45" data-name="그룹 45">
    <path id="패스_75" data-name="패스 75" d="M48.592,22.009a.932.932,0,0,0,.929.929H65.289a.932.932,0,0,0,.929-.929c0-5.142-2.323-9.557-5.591-11.322a5.831,5.831,0,1,0-6.428,0C50.915,12.453,48.592,16.867,48.592,22.009ZM57.4,1.859A3.965,3.965,0,1,1,53.44,5.824,3.973,3.973,0,0,1,57.4,1.859Zm0,9.835c3.624,0,6.6,4.135,6.923,9.386H50.482C50.807,15.829,53.781,11.694,57.4,11.694Z" transform="translate(-48.592)" fill="#333"/>
  </g>
</svg>
