<svg id="online-shopping-cart" xmlns="http://www.w3.org/2000/svg" width="23.737" height="21.543" viewBox="0 0 23.737 21.543">
  <g id="그룹_53" data-name="그룹 53" transform="translate(0 0)">
    <path id="패스_104" data-name="패스 104" d="M.878,22.987H3.4L6.981,35.954a.878.878,0,0,0,.849.644H18.851a.88.88,0,0,0,.8-.527l4.01-9.22a.888.888,0,0,0-.073-.834.872.872,0,0,0-.732-.4H10.684a.878.878,0,1,0,0,1.756h10.83l-3.249,7.464H8.489L4.9,21.875a.878.878,0,0,0-.849-.644H.878a.878.878,0,1,0,0,1.756Z" transform="translate(0 -21.231)" fill="#333"/>
    <path id="패스_105" data-name="패스 105" d="M98.89,365.213a1.99,1.99,0,1,0-1.99-1.99A1.992,1.992,0,0,0,98.89,365.213Z" transform="translate(-91.895 -343.669)" fill="#333"/>
    <path id="패스_106" data-name="패스 106" d="M339.909,365.13h.146a2.059,2.059,0,1,0-.146,0Z" transform="translate(-320.473 -343.586)" fill="#333"/>
  </g>
</svg>
