<svg xmlns="http://www.w3.org/2000/svg" width="86.177" height="32.137" viewBox="0 0 86.177 32.137">
  <g id="그룹_683" data-name="그룹 683" transform="translate(-224.624 -522.995)">
    <g id="그룹_354" data-name="그룹 354" transform="translate(224.624 522.995)">
      <path id="패스_135" data-name="패스 135" d="M226.706,530.942a2.752,2.752,0,0,0-.492-1.7,1.742,1.742,0,0,0-1.59-.643v-.378a22.63,22.63,0,0,0,4.958-1.06h.53V553.84a1.8,1.8,0,0,0,1.741,2.005v.341h-6.888v-.341a1.871,1.871,0,0,0,1.741-2.005Z" transform="translate(-224.624 -524.656)" fill="#b99dc3"/>
      <path id="패스_136" data-name="패스 136" d="M254.252,558.008a10.608,10.608,0,0,0,1.854-5.866v-6.4a2.753,2.753,0,0,0-.491-1.7,1.858,1.858,0,0,0-1.59-.681v-.341a21.694,21.694,0,0,0,4.958-1.06h.567v13.626a15.877,15.877,0,0,0,.379,3.217,5.375,5.375,0,0,0,1.249,2.763v.34h-3.9a10.045,10.045,0,0,1-.682-2.573,19.01,19.01,0,0,1-.378-3.822c-1.817,4.39-4.5,6.585-8.1,6.623q-7.21,0-7.494-7.154v-9.235a2.75,2.75,0,0,0-.492-1.7,1.858,1.858,0,0,0-1.59-.681v-.341a22.628,22.628,0,0,0,4.958-1.06h.53c0,2.2,0,4.39.038,6.548v6.586a13.1,13.1,0,0,0,.378,3.292,4.3,4.3,0,0,0,1.476,2.384,4.546,4.546,0,0,0,3.217.72A7.441,7.441,0,0,0,254.252,558.008Z" transform="translate(-230.181 -530.566)" fill="#b99dc3"/>
      <path id="패스_137" data-name="패스 137" d="M287.012,544.433a7.194,7.194,0,0,1,5.45-2.535,7.014,7.014,0,0,1,5.261,1.893,8.288,8.288,0,0,1,1.855,5.336v10.6a1.8,1.8,0,0,0,1.741,2.005v.341h-6.888v-.341a1.9,1.9,0,0,0,1.74-2.005c0-1.779,0-3.6-.038-5.374v-5.375a14.745,14.745,0,0,0-.34-3.217,4.459,4.459,0,0,0-1.4-2.346,4.621,4.621,0,0,0-3.065-.833,5.521,5.521,0,0,0-3.785,1.93,12.4,12.4,0,0,0-2.46,4.087,15.278,15.278,0,0,0-.984,4.277v6.85a1.8,1.8,0,0,0,1.74,2.005v.341h-6.888v-.341a.141.141,0,0,0,.114-.037,1.876,1.876,0,0,0,1.628-1.968V545.909a2.75,2.75,0,0,0-.492-1.7,1.858,1.858,0,0,0-1.59-.681v-.341a21.151,21.151,0,0,0,4.807-1.06h.53v7.759A16.121,16.121,0,0,1,287.012,544.433Z" transform="translate(-246.175 -530.541)" fill="#b99dc3"/>
      <path id="패스_138" data-name="패스 138" d="M319.309,553.442a10.688,10.688,0,0,1,3.936-1.968,47.526,47.526,0,0,1,8.666-1.363c.909-.076,1.817-.151,2.725-.265,0-2.5-.568-4.39-1.7-5.639a5.789,5.789,0,0,0-3.369-1.628,11.018,11.018,0,0,0-3.142.076,5.519,5.519,0,0,0-2.763,1.287,3.456,3.456,0,0,0-.984,2.876,1.776,1.776,0,0,1-1.7,2.385c-1.93.114-2.687-.795-2.271-2.687a6.365,6.365,0,0,1,2.99-2.99,13.37,13.37,0,0,1,3.558-1.287,20.19,20.19,0,0,1,3.709-.341,12.846,12.846,0,0,1,4.276.719,7.742,7.742,0,0,1,3.52,2.5,7.831,7.831,0,0,1,1.287,4.769v7.8a9.421,9.421,0,0,0,.151,2.271,1.4,1.4,0,0,0,1.438,1.249,1.089,1.089,0,0,0,.871-.492,2.5,2.5,0,0,0,.378-1.022,4.786,4.786,0,0,0,.038-1.022h.379a4.821,4.821,0,0,1-.606,2.649,2.954,2.954,0,0,1-2.536.984,2.877,2.877,0,0,1-2.612-1.135,6.963,6.963,0,0,1-1.059-2.952,10.2,10.2,0,0,1-8.024,4.088,17.3,17.3,0,0,1-3.822-.341,8.6,8.6,0,0,1-3.6-1.552,4.121,4.121,0,0,1-1.628-3.293A5.143,5.143,0,0,1,319.309,553.442Zm13.738-2.877-1.513.227a37.461,37.461,0,0,0-4.5.871,12.055,12.055,0,0,0-4.164,1.93,5.419,5.419,0,0,0-2.043,3.86,3.961,3.961,0,0,0,1.438,3.066,5.9,5.9,0,0,0,3.217,1.173,9.246,9.246,0,0,0,6.7-1.93,9.375,9.375,0,0,0,2.46-3.142v-6.283Z" transform="translate(-261.667 -530.541)" fill="#b99dc3"/>
      <circle id="타원_64" data-name="타원 64" cx="2.191" cy="2.191" r="2.191" transform="translate(81.796 27.756)" fill="#f5dce3"/>
      <g id="그룹_353" data-name="그룹 353" transform="translate(61.186)">
        <ellipse id="타원_65" data-name="타원 65" cx="3.458" cy="0.633" rx="3.458" ry="0.633" transform="translate(2.804 8.92)" fill="#a987b4"/>
        <path id="패스_139" data-name="패스 139" d="M338.379,524.3a.611.611,0,0,0-.338,1.121l-.042.038s-4.175,8.962-5.1-1.244l-.01-.026a.613.613,0,1,0-.265.018c-.023.406-.6,9.86-5.187,1.336l-.061-.1a.611.611,0,1,0-.3.078.635.635,0,0,0,.084-.007v.049l2,6.558a10.055,10.055,0,0,1,7.17,0l1.954-6.608a.572.572,0,0,0,.091.008.612.612,0,0,0,0-1.223Z" transform="translate(-326.465 -522.995)" fill="#a987b4"/>
        <path id="패스_140" data-name="패스 140" d="M332.146,526.586a.506.506,0,1,0-.235.053l-.1,2.805s.907.843,1.349-.105Z" transform="translate(-328.441 -524.046)" fill="#a987b4"/>
        <path id="패스_141" data-name="패스 141" d="M341.117,526.133a.506.506,0,1,0-.714.461l-1.057,2.859c.443.949,1.349.106,1.349.106l-.1-2.92h.016A.506.506,0,0,0,341.117,526.133Z" transform="translate(-331.607 -524.046)" fill="#a987b4"/>
      </g>
    </g>
  </g>
</svg>
