<svg xmlns="http://www.w3.org/2000/svg" width="40" height="47" viewBox="0 0 40 47">
  <g id="그룹_1207" data-name="그룹 1207" transform="translate(-387 -197)">
    <line id="선_89" data-name="선 89" x2="40" transform="translate(387 243.5)" fill="none" stroke="#fff" stroke-width="1"/>
    <path id="빼기_385" data-name="빼기 385" d="M40,46H0V20A20,20,0,0,1,34.142,5.858,19.869,19.869,0,0,1,40,20V46ZM20,28.8h0a4.6,4.6,0,0,0,6.924,0,5.742,5.742,0,0,0,0-7.586L20,13.628l-6.925,7.586a5.742,5.742,0,0,0,0,7.586A4.6,4.6,0,0,0,20,28.8Z" transform="translate(387 197)" fill="#333"/>
  </g>
</svg>
