<svg xmlns="http://www.w3.org/2000/svg" width="86.832" height="85.083" viewBox="0 0 86.832 85.083">
  <g id="그룹_532" data-name="그룹 532" transform="translate(-110.712 -563.946)">
    <g id="그룹_363" data-name="그룹 363" transform="translate(0 1)">
      <g id="그룹_361" data-name="그룹 361">
        <g id="그룹_360" data-name="그룹 360">
          <g id="그룹_357" data-name="그룹 357">
            <path id="패스_142" data-name="패스 142" d="M137.663,616.717A17.37,17.37,0,0,1,144,613.391a77.108,77.108,0,0,1,14.04-2.485c1.474-.151,2.947-.3,4.419-.516-.076-4.067-1.057-7.13-2.94-9.129a9.4,9.4,0,0,0-5.523-2.545,17.854,17.854,0,0,0-5.1.22,8.964,8.964,0,0,0-4.45,2.18,5.633,5.633,0,0,0-1.51,4.714q.711,3.406-2.694,3.934c-3.133.244-4.39-1.211-3.772-4.3a10.348,10.348,0,0,1,4.766-4.96,21.7,21.7,0,0,1,5.741-2.205,32.782,32.782,0,0,1,6.016-.669,20.846,20.846,0,0,1,6.971,1.039,12.586,12.586,0,0,1,5.8,3.959c1.45,1.883,2.176,4.458,2.238,7.724l.24,12.694a15.3,15.3,0,0,0,.315,3.692,2.284,2.284,0,0,0,2.376,1.99,1.77,1.77,0,0,0,1.4-.828,4.083,4.083,0,0,0,.584-1.675,7.792,7.792,0,0,0,.03-1.666l.615-.011a7.861,7.861,0,0,1-.9,4.332c-.657,1.06-2.062,1.58-4.09,1.68q-3.045.059-4.278-1.768a11.351,11.351,0,0,1-1.813-4.774c-3.6,4.507-7.93,6.808-12.911,6.9a28.014,28.014,0,0,1-6.222-.437,13.955,13.955,0,0,1-5.889-2.416,6.712,6.712,0,0,1-2.746-5.311A8.379,8.379,0,0,1,137.663,616.717ZM159.9,611.61l-2.453.417a60.741,60.741,0,0,0-7.291,1.556,19.569,19.569,0,0,0-6.705,3.271,8.829,8.829,0,0,0-3.2,6.348,6.458,6.458,0,0,0,2.431,4.947,9.576,9.576,0,0,0,5.263,1.811,15,15,0,0,0,10.825-3.349,15.253,15.253,0,0,0,3.9-5.19l-.193-10.229Z" fill="#fffcf8"/>
            <g id="그룹_356" data-name="그룹 356">
              <path id="패스_143" data-name="패스 143" d="M155.055,591.524c.364.032.714.072,1.047.119h.055c-.348-.05-.715-.091-1.1-.124Z" fill="#fffcf8"/>
              <path id="패스_144" data-name="패스 144" d="M150,591.643c.333-.047.683-.087,1.047-.119l0-.005c-.383.033-.75.074-1.1.124Z" fill="#fffcf8"/>
            </g>
          </g>
          <g id="그룹_358" data-name="그룹 358">
            <path id="패스_145" data-name="패스 145" d="M119.257,593.431l-.118.427-2.554-.712-.829,2.993,2.554.71-.119.427-5.238-1.457.118-.427,2.3.642.828-2.994-2.3-.641.118-.426Z" fill="#fffcf8"/>
            <path id="패스_146" data-name="패스 146" d="M121.236,588.7l-2.007-.093-.907,2.067,1.419,1.427-.184.419-4.134-4.167.162-.371,5.838.293Zm-4.513-.257c-.077,0-.2-.009-.357-.023l-.421-.045c.109.093.215.186.317.282s.192.176.268.243l1.48,1.479.795-1.809Z" fill="#fffcf8"/>
            <path id="패스_147" data-name="패스 147" d="M124.026,584.015l-.251.4-5.7.154-.012.019c.173.1.356.2.547.311s.389.23.591.357l2.912,1.825-.222.356-4.61-2.889.249-.4,5.685-.157.011-.019c-.138-.074-.312-.175-.522-.3s-.4-.245-.585-.358l-2.925-1.833.222-.357Z" fill="#fffcf8"/>
            <path id="패스_148" data-name="패스 148" d="M125.677,577.658a2.748,2.748,0,0,1,1.092,1.907,2.921,2.921,0,0,1-.846,2.055l-.881,1.023-4.115-3.561.99-1.148a2.395,2.395,0,0,1,3.76-.276Zm-.292.361a2.024,2.024,0,0,0-3.233.238l-.643.745,3.527,3.052.569-.659A2.118,2.118,0,0,0,125.385,578.019Z" fill="#fffcf8"/>
            <path id="패스_149" data-name="패스 149" d="M132.387,575.54l-4.5-2.882-.018.014.3.38q.169.213.343.454l2.306,3.178-.338.247-3.2-4.407.543-.395,4.313,2.754.02-.014-1.266-4.975.53-.385,3.2,4.406-.358.261-2.332-3.216c-.1-.136-.2-.277-.294-.424s-.186-.281-.268-.4l-.019.013,1.331,5.183Z" fill="#fffcf8"/>
            <path id="패스_150" data-name="패스 150" d="M139.129,571.554l-1.495-1.345-2.008,1.024.2,2.006-.408.208-.569-5.849.359-.184,4.335,3.928Zm-3.333-3.062c-.058-.05-.146-.131-.26-.244s-.213-.214-.3-.3c.026.142.048.281.068.42s.037.257.053.357l.213,2.085,1.757-.9Z" fill="#fffcf8"/>
            <path id="패스_151" data-name="패스 151" d="M143.522,567.005a2.755,2.755,0,0,1-.022,2.2,2.909,2.909,0,0,1-1.768,1.344l-1.276.434-1.75-5.158,1.435-.489a2.4,2.4,0,0,1,3.381,1.67Zm-.434.165a2.027,2.027,0,0,0-2.909-1.437l-.93.317,1.5,4.422.822-.28A2.116,2.116,0,0,0,143.088,567.17Z" fill="#fffcf8"/>
            <path id="패스_152" data-name="패스 152" d="M148.74,568.763l-2.933.566-1.029-5.351,2.931-.566.075.39-2.5.482.375,1.955,2.355-.454.076.39-2.356.454.428,2.226,2.5-.483Z" fill="#fffcf8"/>
            <path id="패스_153" data-name="패스 153" d="M151.71,569.862a1.844,1.844,0,0,1-.343-.013,1.023,1.023,0,0,1-.246-.063l-.015-.4a1.409,1.409,0,0,0,.265.058,2.039,2.039,0,0,0,.317.011q.845-.035.8-1.055L152.286,563l.442-.016.206,5.391a1.605,1.605,0,0,1-.278,1.073A1.187,1.187,0,0,1,151.71,569.862Z" fill="#fffcf8"/>
            <path id="패스_154" data-name="패스 154" d="M157.648,568.537l-2.98-.149.273-5.442,2.981.15-.019.4-2.54-.129-.1,1.99,2.4.121-.02.4-2.4-.12-.114,2.263,2.54.128Z" fill="#fffcf8"/>
            <path id="패스_155" data-name="패스 155" d="M165.984,564.519l-2.559,5.032-.424-.09-.3-4.156c-.018-.191-.031-.365-.04-.525s-.01-.293-.009-.4c-.035.09-.084.2-.146.34s-.13.274-.207.42l-1.944,3.762-.425-.088-.319-5.634.447.095.206,3.862c.006.221.011.421.019.6s.007.356,0,.527q.1-.244.213-.5c.078-.169.167-.351.27-.543l1.787-3.422.44.092.293,3.883c.016.225.026.431.032.617s.006.361,0,.526c.06-.157.126-.32.2-.483s.162-.351.268-.557l1.747-3.453Z" fill="#fffcf8"/>
            <path id="패스_156" data-name="패스 156" d="M168.69,571.373l-2.791-1.062,1.93-5.094,2.791,1.061-.142.372-2.376-.9-.707,1.861,2.244.853-.14.372-2.244-.853-.8,2.118,2.378.905Z" fill="#fffcf8"/>
            <path id="패스_157" data-name="패스 157" d="M170.011,571.995l2.511-4.834.393.206-2.327,4.473,2.264,1.182-.187.359Z" fill="#fffcf8"/>
            <path id="패스_158" data-name="패스 158" d="M177.833,570.264a2.578,2.578,0,0,1,1.017,1.11,1.308,1.308,0,0,1-.248,1.232,1.376,1.376,0,0,1-.827.62,1.788,1.788,0,0,1-.964-.056l-.166,2.885-.433-.3.185-2.725-1.067-.733L174,574.235l-.364-.25,3.078-4.491Zm-.251.3-.722-.5-1.315,1.918.848.583a1.532,1.532,0,0,0,1.019.326,1.109,1.109,0,0,0,.8-.534.959.959,0,0,0,.179-.936A2.13,2.13,0,0,0,177.582,570.563Z" fill="#fffcf8"/>
            <path id="패스_159" data-name="패스 159" d="M180.155,575.76l3.092-1.15.366.324-3.57,1.3-1.394,1.576-.33-.294,1.374-1.553.863-3.739.366.324Z" fill="#fffcf8"/>
            <path id="패스_160" data-name="패스 160" d="M185.191,582.95a1.35,1.35,0,0,1-.8.317,1.464,1.464,0,0,1-.81-.217,2.653,2.653,0,0,1-.729-.658,4.727,4.727,0,0,1-.478-.721,3.306,3.306,0,0,1-.248-.6l.342-.268a4,4,0,0,0,.259.65,3.872,3.872,0,0,0,.452.711,1.76,1.76,0,0,0,.837.637,1.012,1.012,0,0,0,1.2-.631,1.222,1.222,0,0,0,0-.586,5.712,5.712,0,0,0-.239-.816,4.283,4.283,0,0,1-.214-.831,1.413,1.413,0,0,1,.063-.691,1.369,1.369,0,0,1,.457-.584,1.24,1.24,0,0,1,.729-.285,1.4,1.4,0,0,1,.75.193,2.394,2.394,0,0,1,.679.607,3.79,3.79,0,0,1,.4.641,3.573,3.573,0,0,1,.251.665l-.388.123a3.373,3.373,0,0,0-.589-1.2,1.568,1.568,0,0,0-.762-.569.827.827,0,0,0-.791.171.917.917,0,0,0-.345.466,1.189,1.189,0,0,0-.006.568,6.024,6.024,0,0,0,.21.737,5.939,5.939,0,0,1,.234.867,1.429,1.429,0,0,1-.03.708A1.231,1.231,0,0,1,185.191,582.95Z" fill="#fffcf8"/>
            <path id="패스_161" data-name="패스 161" d="M186.861,588.374l-.223-.382,2.287-1.34-1.565-2.681-2.287,1.34-.223-.382,4.692-2.752.223.382L187.7,583.77l1.563,2.68,2.064-1.209.224.381Z" fill="#fffcf8"/>
            <path id="패스_162" data-name="패스 162" d="M191.822,593.233a3.666,3.666,0,0,1-1.463.271,2.157,2.157,0,0,1-1.214-.409,2.418,2.418,0,0,1-.818-1.134,2.468,2.468,0,0,1-.163-1.4,2.159,2.159,0,0,1,.629-1.121,3.712,3.712,0,0,1,1.269-.782,3.531,3.531,0,0,1,1.456-.266,2.192,2.192,0,0,1,1.213.422,2.48,2.48,0,0,1,.823,1.149,2.454,2.454,0,0,1,.162,1.362,2.119,2.119,0,0,1-.6,1.112A3.664,3.664,0,0,1,191.822,593.233Zm-1.592-4.146a3.453,3.453,0,0,0-1.106.658,1.772,1.772,0,0,0-.551.918,2.261,2.261,0,0,0,.8,2.1,1.744,1.744,0,0,0,1.018.3,3.51,3.51,0,0,0,1.259-.264,2.816,2.816,0,0,0,1.471-1.1,1.748,1.748,0,0,0,.059-1.6,1.965,1.965,0,0,0-.687-.943,1.762,1.762,0,0,0-1.021-.321A3.341,3.341,0,0,0,190.23,589.087Z" fill="#fffcf8"/>
            <path id="패스_163" data-name="패스 163" d="M195.23,595.73q.432,1.914-1.069,2.253a1.548,1.548,0,0,1-1.311-.224,2.325,2.325,0,0,1-.779-1.429l-.177-.783-2.169.493-.1-.431,5.3-1.2Zm-.388.041-.193-.848-2.375.539.165.737a2.311,2.311,0,0,0,.538,1.133,1.072,1.072,0,0,0,1.061.209,1.038,1.038,0,0,0,.787-.564A1.98,1.98,0,0,0,194.842,595.771Z" fill="#fffcf8"/>
          </g>
          <g id="그룹_359" data-name="그룹 359">
            <path id="패스_164" data-name="패스 164" d="M137.136,642.592a1.361,1.361,0,0,1-.627.587,1.469,1.469,0,0,1-.832.095,2.631,2.631,0,0,1-.919-.347,4.724,4.724,0,0,1-.708-.5,3.272,3.272,0,0,1-.45-.468l.22-.375a4.193,4.193,0,0,0,.478.511,3.873,3.873,0,0,0,.68.5,1.763,1.763,0,0,0,1.012.285,1.019,1.019,0,0,0,.884-1.025,1.247,1.247,0,0,0-.21-.547,5.884,5.884,0,0,0-.52-.672,4.344,4.344,0,0,1-.5-.7,1.422,1.422,0,0,1-.192-.667,1.368,1.368,0,0,1,.214-.711,1.236,1.236,0,0,1,.573-.533,1.392,1.392,0,0,1,.769-.092,2.308,2.308,0,0,1,.852.317,3.458,3.458,0,0,1,.612.448,3.525,3.525,0,0,1,.477.528l-.317.254a3.359,3.359,0,0,0-.985-.9,1.552,1.552,0,0,0-.916-.252.827.827,0,0,0-.673.448.931.931,0,0,0-.153.561,1.2,1.2,0,0,0,.2.531,5.779,5.779,0,0,0,.465.609,6.022,6.022,0,0,1,.534.722,1.463,1.463,0,0,1,.231.67A1.249,1.249,0,0,1,137.136,642.592Z" fill="#fffcf8"/>
            <path id="패스_165" data-name="패스 165" d="M139.241,645.123l-1.459-.656.113-.251.562.161,1.929-4.31-.491-.32.113-.251,1.459.656-.112.25-.566-.154-1.929,4.311.493.314Z" fill="#fffcf8"/>
            <path id="패스_166" data-name="패스 166" d="M144.9,647.038l-.451-.135-1.658-5.469-.022-.006c-.047.194-.1.4-.154.611s-.119.435-.187.664l-.986,3.3-.4-.12,1.559-5.22.453.137,1.653,5.45.022.007c.036-.154.086-.35.152-.584s.128-.455.189-.66l.988-3.312.4.121Z" fill="#fffcf8"/>
            <path id="패스_167" data-name="패스 167" d="M150.474,646.493a1.363,1.363,0,0,1-.349.785,1.5,1.5,0,0,1-.732.41,2.645,2.645,0,0,1-.981.037,4.77,4.77,0,0,1-.843-.183,3.151,3.151,0,0,1-.6-.257l.057-.431a4.121,4.121,0,0,0,.638.285,3.846,3.846,0,0,0,.82.2,1.758,1.758,0,0,0,1.043-.129,1.016,1.016,0,0,0,.418-1.287,1.22,1.22,0,0,0-.4-.424,5.957,5.957,0,0,0-.739-.419,4.1,4.1,0,0,1-.732-.445,1.392,1.392,0,0,1-.435-.54,1.365,1.365,0,0,1-.078-.737,1.262,1.262,0,0,1,.322-.716,1.4,1.4,0,0,1,.674-.383,2.382,2.382,0,0,1,.908-.039,3.675,3.675,0,0,1,.737.176,3.557,3.557,0,0,1,.644.3l-.194.358a3.4,3.4,0,0,0-1.255-.446,1.575,1.575,0,0,0-.942.124.835.835,0,0,0-.447.676.939.939,0,0,0,.075.577,1.222,1.222,0,0,0,.392.41,5.971,5.971,0,0,0,.663.382,5.77,5.77,0,0,1,.772.457,1.479,1.479,0,0,1,.472.529A1.245,1.245,0,0,1,150.474,646.493Z" fill="#fffcf8"/>
            <path id="패스_168" data-name="패스 168" d="M157.95,647.775l-3.433.254-.027-.364,1.438-1.737c.238-.289.438-.545.6-.772a2.616,2.616,0,0,0,.355-.668,1.778,1.778,0,0,0,.084-.727,1.032,1.032,0,0,0-.354-.765,1.117,1.117,0,0,0-.818-.218,1.8,1.8,0,0,0-.675.18,2.594,2.594,0,0,0-.6.419l-.259-.287a2.665,2.665,0,0,1,.7-.48,2.273,2.273,0,0,1,.809-.213,1.591,1.591,0,0,1,1.149.305,1.348,1.348,0,0,1,.5,1,2.013,2.013,0,0,1-.1.818,3.061,3.061,0,0,1-.4.749c-.175.247-.383.513-.62.795l-1.257,1.5v.014l2.879-.212Z" fill="#fffcf8"/>
            <path id="패스_169" data-name="패스 169" d="M162.545,644.1a4.25,4.25,0,0,1,.038,2.129,1.563,1.563,0,0,1-2.573.576,4.045,4.045,0,0,1-.879-1.956,5.722,5.722,0,0,1-.15-1.467,1.988,1.988,0,0,1,.335-1.074,1.491,1.491,0,0,1,.929-.563,1.47,1.47,0,0,1,1.06.119,1.992,1.992,0,0,1,.754.827A5.528,5.528,0,0,1,162.545,644.1Zm-2.99.657a4.094,4.094,0,0,0,.7,1.725,1.133,1.133,0,0,0,1.952-.433,4.25,4.25,0,0,0-.095-1.853,6.117,6.117,0,0,0-.392-1.247,1.631,1.631,0,0,0-.57-.718,1.2,1.2,0,0,0-1.525.338,1.721,1.721,0,0,0-.224.9A5.854,5.854,0,0,0,159.555,644.755Z" fill="#fffcf8"/>
            <path id="패스_170" data-name="패스 170" d="M167.988,645.082l-3.223,1.209-.129-.342.894-2.07c.147-.344.268-.647.359-.91a2.665,2.665,0,0,0,.154-.743,1.811,1.811,0,0,0-.123-.719,1.035,1.035,0,0,0-.554-.636,1.123,1.123,0,0,0-.847.02,1.839,1.839,0,0,0-.6.363,2.7,2.7,0,0,0-.461.572l-.327-.2a2.667,2.667,0,0,1,.534-.658,2.324,2.324,0,0,1,.718-.432,1.594,1.594,0,0,1,1.187-.03,1.337,1.337,0,0,1,.759.824,1.975,1.975,0,0,1,.134.813,3.009,3.009,0,0,1-.17.83q-.147.43-.373.937l-.785,1.795.005.014,2.7-1.014Z" fill="#fffcf8"/>
            <path id="패스_171" data-name="패스 171" d="M170.441,639.111a1.246,1.246,0,0,1,.144.931,1.454,1.454,0,0,1-.513.777l.011.02a1.271,1.271,0,0,1,1.784.535,1.485,1.485,0,0,1,.119,1.243,2.169,2.169,0,0,1-1.091,1.108,3.394,3.394,0,0,1-1.473.451l-.2-.368a3.168,3.168,0,0,0,.75-.12,3.4,3.4,0,0,0,.747-.3,1.682,1.682,0,0,0,.846-.839,1.126,1.126,0,0,0-.1-.961.9.9,0,0,0-.794-.534,2.357,2.357,0,0,0-1.158.343l-.507.278-.183-.334.514-.283a1.75,1.75,0,0,0,.775-.759.99.99,0,0,0-.05-.95.881.881,0,0,0-.625-.493,1.283,1.283,0,0,0-.85.179,2.121,2.121,0,0,0-.62.492,3.326,3.326,0,0,0-.424.646l-.341-.162a2.782,2.782,0,0,1,.451-.708,2.7,2.7,0,0,1,.755-.6,1.733,1.733,0,0,1,1.2-.246A1.217,1.217,0,0,1,170.441,639.111Z" fill="#fffcf8"/>
          </g>
        </g>
        <ellipse id="타원_66" data-name="타원 66" cx="3.34" cy="3.347" rx="3.34" ry="3.347" transform="translate(190.863 609.994)" fill="#f5dce3"/>
        <ellipse id="타원_67" data-name="타원 67" cx="3.34" cy="3.347" rx="3.34" ry="3.347" transform="translate(110.712 609.994)" fill="#f5dce3"/>
      </g>
      <g id="그룹_362" data-name="그룹 362">
        <ellipse id="타원_68" data-name="타원 68" cx="5.509" cy="1.01" rx="5.509" ry="1.01" transform="translate(148.619 592.257)" fill="#fffcf8"/>
        <path id="패스_172" data-name="패스 172" d="M163.13,580.106a.977.977,0,0,0-.538,1.79l-.066.062s-6.651,14.3-8.129-1.986l-.016-.041a.977.977,0,1,0-.422.029c-.036.648-.964,15.738-8.262,2.132l-.1-.157a.973.973,0,1,0-.473.124.988.988,0,0,0,.134-.011v.078l3.191,10.468a15.979,15.979,0,0,1,11.421,0l3.113-10.547a.987.987,0,0,0,.145.012.977.977,0,0,0,0-1.953Z" fill="#fffcf8"/>
        <path id="패스_173" data-name="패스 173" d="M150.054,582.074a.806.806,0,1,0-.374.085l-.154,4.477s1.444,1.347,2.15-.168Z" fill="#fffcf8"/>
        <path id="패스_174" data-name="패스 174" d="M159.3,581.352a.806.806,0,1,0-1.137.736l-1.685,4.564c.706,1.515,2.15.168,2.15.168l-.16-4.662.026,0A.807.807,0,0,0,159.3,581.352Z" fill="#fffcf8"/>
      </g>
    </g>
  </g>
</svg>
