<svg xmlns="http://www.w3.org/2000/svg" width="123.839" height="24.414" viewBox="0 0 123.839 24.414">
  <g id="그룹_1206" data-name="그룹 1206" transform="translate(10964.419 -4824)">
    <g id="search" transform="translate(-11132.423 4552)">
      <g id="타원_1" data-name="타원 1" transform="translate(216 272)" fill="none" stroke="#777" stroke-linecap="round" stroke-width="2">
        <ellipse cx="9.5" cy="10" rx="9.5" ry="10" stroke="none"/>
        <ellipse cx="9.5" cy="10" rx="8.5" ry="9" fill="none"/>
      </g>
      <line id="선_1" data-name="선 1" x1="7" y1="7" transform="translate(232 288)" fill="none" stroke="#777" stroke-linecap="round" stroke-width="2"/>
    </g>
    <path id="패스_320" data-name="패스 320" d="M-2334.46-235.145h3.792l5.552,16.114h17.2l3.656-12.729h-20.177" transform="translate(-8537.318 5060.148)" fill="none" stroke="#777" stroke-linecap="round" stroke-linejoin="round" stroke-width="2"/>
    <circle id="타원_219" data-name="타원 219" cx="2.5" cy="2.5" r="2.5" transform="translate(-10861.423 4843)" fill="#777"/>
    <circle id="타원_220" data-name="타원 220" cx="2.5" cy="2.5" r="2.5" transform="translate(-10851.423 4843)" fill="#777"/>
    <g id="그룹_571" data-name="그룹 571" transform="translate(-8541.423 5055)">
      <g id="heart" transform="translate(-2436.251 -244.255)" fill="none">
        <path d="M15.4,25.834a7.4,7.4,0,0,1,0-10.421,7.288,7.288,0,0,1,10.354,0,7.288,7.288,0,0,1,10.354,0,7.4,7.4,0,0,1,0,10.421L25.753,36.255Z" stroke="none"/>
        <path d="M 25.7529354095459 33.41713333129883 L 34.68778610229492 24.42424583435059 C 36.77002716064453 22.32848739624023 36.77002716064453 18.91841697692871 34.68778610229492 16.82264709472656 C 33.68324661254883 15.81156635284424 32.34861755371094 15.25474643707275 30.92975616455078 15.25474643707275 C 29.51090621948242 15.25474643707275 28.17627716064453 15.81156635284424 27.1717357635498 16.82264709472656 L 25.7529468536377 18.25064659118652 L 24.33415603637695 16.82264709472656 C 23.32961654663086 15.81156635284424 21.99494743347168 15.25474643707275 20.57601737976074 15.25474643707275 C 19.1570873260498 15.25474643707275 17.82241630554199 15.81156635284424 16.81786727905273 16.8226375579834 C 14.73563671112061 18.91841697692871 14.73563671112061 22.32848739624023 16.81784629821777 24.42422676086426 L 25.7529354095459 33.41713333129883 M 25.7529468536377 36.25474548339844 L 15.39907646179199 25.83387756347656 C 12.53997707366943 22.95618629455566 12.53997707366943 18.29071617126465 15.39907646179199 15.4130163192749 C 18.25818824768066 12.53532695770264 22.89383506774902 12.53532695770264 25.7529468536377 15.4130163192749 C 28.61205101013184 12.53532600402832 33.24747085571289 12.53532981872559 36.10657501220703 15.4130163192749 C 38.9656867980957 18.29071617126465 38.9656867980957 22.95618629455566 36.10657501220703 25.83387756347656 L 25.7529468536377 36.25474548339844 Z" stroke="none" fill="#777"/>
      </g>
      <path id="합치기_29" data-name="합치기 29" d="M3.407,3.1h0v0h0v0Z" transform="translate(-2413.905 -223.414)" fill="none" stroke="#777" stroke-linecap="round" stroke-linejoin="round" stroke-width="1"/>
    </g>
  </g>
</svg>
